<svg preserveAspectRatio="none" width="100%" height="100%" overflow="visible" style="display: block;" viewBox="0 0 37 37" fill="none" xmlns="http://www.w3.org/2000/svg">
<g id="security 1">
<path id="Vector" d="M4.11124 8.55783V16.1198C4.11011 24.1378 9.13821 31.4604 16.6245 34.3397C17.2286 34.5723 17.8643 34.6875 18.5 34.6875C19.1357 34.6875 19.7714 34.5712 20.3766 34.3397L21.499 33.9073C28.4185 31.2458 32.8899 24.5522 32.8888 16.856V8.55783C32.8888 7.9368 32.3976 7.42642 31.7777 7.40271C27.6213 7.24124 23.3836 5.60284 19.182 2.53494C18.7755 2.23911 18.2245 2.23911 17.818 2.53494C13.6153 5.60284 9.37759 7.24124 5.22232 7.40271C4.60242 7.42642 4.11124 7.9368 4.11124 8.55783ZM6.42374 9.63956C10.4525 9.25903 14.5062 7.66467 18.5 4.88809C22.4927 7.66467 26.5475 9.25903 30.5763 9.63956V16.856C30.5774 23.588 26.6886 29.4336 20.668 31.7483L19.5467 32.1808C18.8715 32.4405 18.1274 32.4405 17.4544 32.1808C10.8557 29.6425 6.42261 23.1882 6.42374 16.1198V9.63956Z" fill="var(--fill-0, #060F1D)"/>
<path id="Vector_2" d="M16.1322 23.2763C16.349 23.4931 16.6425 23.6151 16.9497 23.6151C17.2568 23.6151 17.5504 23.4931 17.7672 23.2763L24.9587 16.0847C25.4104 15.6331 25.4104 14.9014 24.9587 14.4497C24.5071 13.9981 23.7754 13.9981 23.3237 14.4497L16.9497 20.8238L13.6763 17.5493C13.2246 17.0976 12.4929 17.0976 12.0413 17.5493C11.5896 18.0009 11.5896 18.7326 12.0413 19.1843L16.1322 23.2763Z" fill="var(--fill-0, #060F1D)"/>
</g>
</svg>
