<svg preserveAspectRatio="none" width="100%" height="100%" overflow="visible" style="display: block;" viewBox="0 0 33 33" fill="none" xmlns="http://www.w3.org/2000/svg">
<g id="mobile-notch 1" clip-path="url(#clip0_0_12)">
<path id="Vector" d="M20.6869 0.50011C20.6497 0.498735 12.3502 0.498735 12.3131 0.50011C8.55112 0.53311 5.5 3.60486 5.5 7.37374V26.6237C5.5 30.4146 8.58412 33.4987 12.375 33.4987H20.625C24.4159 33.4987 27.5 30.4146 27.5 26.6237V7.37511C27.5 3.60486 24.4489 0.534485 20.6869 0.50011ZM24.75 26.6237C24.75 28.898 22.8992 30.7487 20.625 30.7487H12.375C10.1007 30.7487 8.25 28.898 8.25 26.6237V7.37511C8.25 5.37724 9.67725 3.70799 11.5651 3.32986L12.5194 5.23974C12.7517 5.70586 13.2289 6.00011 13.75 6.00011H19.25C19.7711 6.00011 20.2469 5.70586 20.4806 5.23974L21.4349 3.32986C23.3227 3.70661 24.75 5.37724 24.75 7.37511V26.6237ZM17.875 27.9987H15.125C14.366 27.9987 13.75 27.3827 13.75 26.6237C13.75 25.8647 14.366 25.2487 15.125 25.2487H17.875C18.634 25.2487 19.25 25.8647 19.25 26.6237C19.25 27.3827 18.634 27.9987 17.875 27.9987Z" fill="var(--fill-0, #060F1D)"/>
</g>
<defs>
<clipPath id="clip0_0_12">
<rect width="33" height="33" fill="white"/>
</clipPath>
</defs>
</svg>
