<svg preserveAspectRatio="none" width="100%" height="100%" overflow="visible" style="display: block;" viewBox="0 0 32 32" fill="none" xmlns="http://www.w3.org/2000/svg">
<g id="document 1" clip-path="url(#clip0_0_6)">
<path id="Vector" d="M22.6667 18.6667C22.6667 19.0203 22.5262 19.3594 22.2761 19.6095C22.0261 19.8595 21.687 20 21.3333 20H10.6667C10.313 20 9.97391 19.8595 9.72386 19.6095C9.47381 19.3594 9.33333 19.0203 9.33333 18.6667C9.33333 18.313 9.47381 17.9739 9.72386 17.7239C9.97391 17.4738 10.313 17.3333 10.6667 17.3333H21.3333C21.687 17.3333 22.0261 17.4738 22.2761 17.7239C22.5262 17.9739 22.6667 18.313 22.6667 18.6667ZM17.3333 22.6667H10.6667C10.313 22.6667 9.97391 22.8071 9.72386 23.0572C9.47381 23.3072 9.33333 23.6464 9.33333 24C9.33333 24.3536 9.47381 24.6928 9.72386 24.9428C9.97391 25.1929 10.313 25.3333 10.6667 25.3333H17.3333C17.687 25.3333 18.0261 25.1929 18.2761 24.9428C18.5262 24.6928 18.6667 24.3536 18.6667 24C18.6667 23.6464 18.5262 23.3072 18.2761 23.0572C18.0261 22.8071 17.687 22.6667 17.3333 22.6667ZM29.3333 13.98V25.3333C29.3312 27.1008 28.6282 28.7953 27.3784 30.045C26.1286 31.2948 24.4341 31.9979 22.6667 32H9.33333C7.56587 31.9979 5.87141 31.2948 4.62163 30.045C3.37184 28.7953 2.66878 27.1008 2.66667 25.3333V6.66667C2.66878 4.89921 3.37184 3.20474 4.62163 1.95496C5.87141 0.705175 7.56587 0.00211667 9.33333 -4.76837e-07H15.3533C16.5795 -0.00315638 17.7941 0.236783 18.927 0.705945C20.0598 1.17511 21.0884 1.86418 21.9533 2.73333L26.5987 7.38133C27.4683 8.24565 28.1578 9.27394 28.6272 10.4066C29.0967 11.5393 29.3367 12.7539 29.3333 13.98ZM20.068 4.61867C19.6484 4.21221 19.1772 3.86256 18.6667 3.57867V9.33333C18.6667 9.68695 18.8071 10.0261 19.0572 10.2761C19.3072 10.5262 19.6464 10.6667 20 10.6667H25.7547C25.4706 10.1563 25.1205 9.68553 24.7133 9.26667L20.068 4.61867ZM26.6667 13.98C26.6667 13.76 26.624 13.5493 26.604 13.3333H20C18.9391 13.3333 17.9217 12.9119 17.1716 12.1618C16.4214 11.4116 16 10.3942 16 9.33333V2.72933C15.784 2.70933 15.572 2.66667 15.3533 2.66667H9.33333C8.27247 2.66667 7.25505 3.08809 6.50491 3.83824C5.75476 4.58838 5.33333 5.6058 5.33333 6.66667V25.3333C5.33333 26.3942 5.75476 27.4116 6.50491 28.1618C7.25505 28.9119 8.27247 29.3333 9.33333 29.3333H22.6667C23.7275 29.3333 24.7449 28.9119 25.4951 28.1618C26.2452 27.4116 26.6667 26.3942 26.6667 25.3333V13.98Z" fill="var(--fill-0, #060F1D)"/>
</g>
<defs>
<clipPath id="clip0_0_6">
<rect width="32" height="32" fill="white"/>
</clipPath>
</defs>
</svg>
