<svg preserveAspectRatio="none" width="100%" height="100%" overflow="visible" style="display: block;" viewBox="0 0 53.5173 24.9632" fill="none" xmlns="http://www.w3.org/2000/svg">
<path id="Vector" fill-rule="evenodd" clip-rule="evenodd" d="M14.214 3.7427C12.4862 3.40009 10.6957 3.57746 9.06867 4.25214C7.44165 4.927 6.05118 6.06897 5.07292 7.53371C4.09467 8.99846 3.57256 10.7203 3.57256 12.4817C3.57256 14.243 4.09467 15.9649 5.07292 17.4297C6.05118 18.8944 7.44165 20.0362 9.06867 20.7111C10.6957 21.3858 12.4862 21.5631 14.214 21.2207C15.9249 20.8815 17.4984 20.0477 18.7393 18.823L20.6446 16.677C21.2994 15.939 22.4285 15.8721 23.1662 16.5269C23.904 17.1819 23.9711 18.3109 23.3161 19.0486L21.3735 21.2368C21.3498 21.2638 21.3251 21.2898 21.2998 21.3152C19.5533 23.0586 17.3292 24.2452 14.9086 24.725C12.488 25.2048 9.97951 24.9564 7.70008 24.0111C5.42062 23.0658 3.47254 21.466 2.10202 19.4137C0.731481 17.3616 0 14.9493 0 12.4817C0 10.014 0.731481 7.60159 2.10202 5.54952C3.47254 3.49744 5.42062 1.89747 7.70008 0.952206C9.97951 0.00685404 12.488 -0.241599 14.9086 0.238249C17.3292 0.718079 19.5533 1.90461 21.2998 3.64802C21.3251 3.67339 21.3498 3.69947 21.3735 3.72626L34.778 18.823C36.0189 20.0477 37.5922 20.8815 39.3033 21.2207C41.031 21.5631 42.8216 21.3858 44.4485 20.7111C46.0756 20.0362 47.4661 18.8944 48.4444 17.4297C49.4226 15.9649 49.9447 14.243 49.9447 12.4817C49.9447 10.7203 49.4226 8.99846 48.4444 7.53371C47.4661 6.06897 46.0756 4.927 44.4485 4.25214C42.8216 3.57746 41.031 3.40009 39.3033 3.7427C37.5924 4.08173 36.0189 4.91556 34.778 6.14024L32.8727 8.28627C32.2179 9.02419 31.0888 9.09117 30.351 8.43632C29.6133 7.78129 29.5461 6.65236 30.2011 5.91463L32.1437 3.72644C32.1675 3.69947 32.1921 3.67339 32.2175 3.64802C33.9639 1.90461 36.188 0.718079 38.6086 0.238249C41.0292 -0.241599 43.5377 0.00685404 45.8171 0.952206C48.0966 1.89747 50.0447 3.49744 51.4152 5.54952C52.7858 7.60159 53.5173 10.014 53.5173 12.4817C53.5173 14.9493 52.7858 17.3616 51.4152 19.4137C50.0447 21.466 48.0966 23.0658 45.8171 24.0111C43.5377 24.9564 41.0292 25.2048 38.6086 24.725C36.188 24.2452 33.9639 23.0586 32.2175 21.3152C32.1921 21.2898 32.1675 21.2638 32.1437 21.237L18.7393 6.14024C17.4984 4.91574 15.9249 4.08173 14.214 3.7427Z" fill="var(--fill-0, #060F1D)"/>
</svg>
