<svg preserveAspectRatio="none" width="100%" height="100%" overflow="visible" style="display: block;" viewBox="0 0 24 24" fill="none" xmlns="http://www.w3.org/2000/svg">
<g id="wifi-xmark 1">
<path id="Vector" d="M23.313 8.687L21.192 10.808C20.228 9.845 19.149 9.067 18 8.469V5.169C19.935 5.949 21.748 7.12 23.313 8.686V8.687ZM6 5.169C4.065 5.949 2.252 7.12 0.687 8.686L2.808 10.807C3.772 9.844 4.851 9.066 6 8.468V5.169ZM4.929 12.929L7.05 15.05C8.372 13.728 10.13 13 12 13C13.87 13 15.627 13.728 16.95 15.05L19.071 12.929C17.182 11.04 14.671 10 12 10C9.329 10 6.818 11.04 4.929 12.929ZM9.689 8.932L12 6.621L14.311 8.932L16.432 6.811L14.121 4.5L16.432 2.189L14.311 0.068L12 2.379L9.689 0.068L7.568 2.189L9.879 4.5L7.568 6.811L9.689 8.932ZM12 17C10.343 17 9 18.343 9 20C9 21.657 10.343 23 12 23C13.657 23 15 21.657 15 20C15 18.343 13.657 17 12 17Z" fill="var(--fill-0, #060F1D)"/>
</g>
</svg>
