<svg preserveAspectRatio="none" width="100%" height="100%" overflow="visible" style="display: block;" viewBox="0 0 248.001 43.591" fill="none" xmlns="http://www.w3.org/2000/svg">
<g id="Group 1762">
<path id="Star 1" d="M22.917 0L29.7155 14.7391L45.8341 16.6502L33.9172 27.6706L37.0805 43.5908L22.917 35.6627L8.75353 43.5908L11.9169 27.6706L0 16.6502L16.1186 14.7391L22.917 0Z" fill="var(--fill-0, #10B981)"/>
<path id="Star 2" d="M73.1562 0L79.9547 14.7391L96.0732 16.6502L84.1564 27.6706L87.3197 43.5908L73.1562 35.6627L58.9927 43.5908L62.156 27.6706L50.2391 16.6502L66.3577 14.7391L73.1562 0Z" fill="var(--fill-0, #10B981)"/>
<path id="Star 3" d="M123.795 0L130.593 14.7391L146.712 16.6502L134.795 27.6706L137.958 43.5908L123.795 35.6627L109.631 43.5908L112.794 27.6706L100.878 16.6502L116.996 14.7391L123.795 0Z" fill="var(--fill-0, #10B981)"/>
<path id="Star 4" d="M174.439 0L181.238 14.7391L197.356 16.6502L185.439 27.6706L188.603 43.5908L174.439 35.6627L160.276 43.5908L163.439 27.6706L151.522 16.6502L167.641 14.7391L174.439 0Z" fill="var(--fill-0, #10B981)"/>
<path id="Star 5" d="M225.084 0L231.882 14.7391L248.001 16.6502L236.084 27.6706L239.247 43.5908L225.084 35.6627L210.92 43.5908L214.083 27.6706L202.167 16.6502L218.285 14.7391L225.084 0Z" fill="var(--fill-0, #10B981)"/>
</g>
</svg>
