<svg preserveAspectRatio="none" width="100%" height="100%" overflow="visible" style="display: block;" viewBox="0 0 25.6174 22.3091" fill="none" xmlns="http://www.w3.org/2000/svg">
<g id="PayPal">
<path id="Vector" fill-rule="evenodd" clip-rule="evenodd" d="M3.0741 15.4829H1.08156C0.945206 15.4829 0.829241 15.582 0.807978 15.7166L0.00209023 20.8261C-0.0139275 20.9269 0.0641528 21.0178 0.166421 21.0178H1.11768C1.25403 21.0178 1.37 20.9187 1.39126 20.7839L1.60862 19.4058C1.62959 19.2708 1.74584 19.1719 1.8819 19.1719H2.51268C3.82524 19.1719 4.58271 18.5367 4.78064 17.2781C4.86976 16.7274 4.78441 16.2947 4.52648 15.9916C4.24334 15.659 3.74097 15.4829 3.0741 15.4829ZM3.30399 17.3491C3.19505 18.0641 2.64875 18.0641 2.12053 18.0641H1.81984L2.03078 16.7288C2.04331 16.6481 2.11323 16.5887 2.19482 16.5887H2.33262C2.69244 16.5887 3.0319 16.5887 3.20732 16.7937C3.31181 16.9162 3.3439 17.0979 3.30399 17.3491ZM9.03031 17.3262H8.07613C7.99483 17.3262 7.92458 17.3856 7.91204 17.4664L7.86984 17.7332L7.8031 17.6366C7.59654 17.3367 7.13597 17.2365 6.6762 17.2365C5.6217 17.2365 4.72118 18.0351 4.54576 19.1554C4.45462 19.7141 4.58419 20.2485 4.90117 20.6211C5.192 20.9637 5.60808 21.1065 6.10304 21.1065C6.9526 21.1065 7.42382 20.5602 7.42382 20.5602L7.38122 20.8254C7.36517 20.9268 7.44324 21.0177 7.5449 21.0177H8.40444C8.54115 21.0177 8.65643 20.9186 8.67801 20.7837L9.19373 17.5179C9.21004 17.4175 9.13225 17.3262 9.03031 17.3262ZM7.70022 19.1833C7.60814 19.7284 7.17547 20.0944 6.62375 20.0944C6.34668 20.0944 6.12515 20.0055 5.98304 19.8371C5.84201 19.6699 5.78835 19.4318 5.83325 19.1667C5.91927 18.6262 6.35921 18.2484 6.90258 18.2484C7.17345 18.2484 7.39376 18.3383 7.53883 18.5082C7.68418 18.6799 7.74189 18.9193 7.70022 19.1833ZM13.1533 17.3261H14.1122C14.2464 17.3261 14.3248 17.4767 14.2485 17.5868L11.0594 22.1901C11.0077 22.2647 10.9226 22.3091 10.8318 22.3091H9.87407C9.73924 22.3091 9.66051 22.1572 9.73857 22.0468L10.7316 20.6451L9.67547 17.5457C9.63893 17.438 9.71848 17.3261 9.83309 17.3261H10.7753C10.8977 17.3261 11.0057 17.4064 11.041 17.5236L11.6015 19.3955L12.924 17.4475C12.9758 17.3715 13.0618 17.3261 13.1533 17.3261Z" fill="var(--fill-0, white)"/>
<path id="Vector_2" fill-rule="evenodd" clip-rule="evenodd" d="M23.5494 20.826L24.3672 15.6231C24.3797 15.5424 24.4497 15.4829 24.531 15.4826H25.4516C25.5533 15.4826 25.6313 15.5738 25.6153 15.6746L24.8089 20.7838C24.7878 20.9187 24.6719 21.0178 24.5353 21.0178H23.7131C23.6115 21.0178 23.5334 20.9269 23.5494 20.826ZM17.2868 15.4829H15.2938C15.1578 15.4829 15.0419 15.582 15.0205 15.7166L14.2147 20.826C14.1986 20.9269 14.2767 21.0178 14.3785 21.0178H15.401C15.4961 21.0178 15.5774 20.9485 15.5922 20.8541L15.8209 19.4058C15.8419 19.2708 15.9582 19.1718 16.0942 19.1718H16.7247C18.0375 19.1718 18.7948 18.5367 18.9929 17.278C19.0823 16.7274 18.9964 16.2947 18.7386 15.9916C18.4556 15.659 17.9536 15.4829 17.2868 15.4829ZM17.5166 17.3491C17.408 18.0641 16.8616 18.0641 16.3331 18.0641H16.0327L16.244 16.7287C16.2565 16.6481 16.3258 16.5886 16.4077 16.5886H16.5455C16.9051 16.5886 17.2448 16.5886 17.4201 16.7937C17.5247 16.9161 17.5566 17.0979 17.5166 17.3491ZM23.2424 17.3262H22.2889C22.2069 17.3262 22.1374 17.3856 22.1251 17.4664L22.0829 17.7332L22.0159 17.6365C21.8093 17.3367 21.349 17.2365 20.8893 17.2365C19.8348 17.2365 18.9345 18.0351 18.7591 19.1554C18.6682 19.7141 18.7972 20.2484 19.1142 20.6211C19.4056 20.9637 19.8211 21.1065 20.3161 21.1065C21.1657 21.1065 21.6367 20.5602 21.6367 20.5602L21.5943 20.8254C21.5782 20.9268 21.6563 21.0176 21.7586 21.0176H22.6178C22.7538 21.0176 22.8698 20.9185 22.8911 20.7837L23.4071 17.5179C23.4228 17.4174 23.3448 17.3262 23.2424 17.3262ZM21.9125 19.1833C21.8209 19.7284 21.3877 20.0943 20.8359 20.0943C20.5593 20.0943 20.3374 20.0055 20.1952 19.8371C20.0541 19.6699 20.0011 19.4318 20.0455 19.1667C20.1319 18.6262 20.5713 18.2484 21.1147 18.2484C21.3857 18.2484 21.6059 18.3383 21.7511 18.5082C21.897 18.6798 21.9547 18.9193 21.9125 19.1833Z" fill="var(--fill-0, white)"/>
<path id="Vector_3" d="M10.4481 13.655L10.6931 12.0991L10.1474 12.0864H7.54186L9.35262 0.604906C9.35814 0.570241 9.37648 0.537922 9.40318 0.514975C9.42987 0.492027 9.46412 0.47938 9.49971 0.47938H13.8931C15.3517 0.47938 16.3582 0.782893 16.8838 1.38195C17.1301 1.66299 17.287 1.95666 17.3629 2.27985C17.4425 2.61897 17.444 3.02412 17.3662 3.51826L17.3605 3.55433V3.87095L17.607 4.01054C17.8145 4.1206 17.9792 4.2466 18.1057 4.39087C18.3166 4.63114 18.4529 4.93653 18.5105 5.29859C18.5699 5.67096 18.5503 6.11405 18.4529 6.61569C18.3405 7.19275 18.1587 7.69532 17.9133 8.10657C17.6875 8.48549 17.3999 8.79971 17.0585 9.04335C16.7325 9.27471 16.3451 9.45039 15.9072 9.56284C15.4828 9.67327 14.999 9.72909 14.4683 9.72909H14.1264C13.8819 9.72909 13.6444 9.81713 13.458 9.97501C13.2712 10.1361 13.1474 10.3562 13.1095 10.597L13.0837 10.7371L12.6509 13.4794L12.6313 13.5801C12.6261 13.612 12.6172 13.6279 12.6042 13.6387C12.5924 13.6484 12.5756 13.655 12.5591 13.655H10.4481Z" fill="var(--fill-0, white)"/>
<path id="Vector_4" d="M17.8402 3.59101C17.8272 3.67485 17.8122 3.76056 17.7953 3.84862C17.2159 6.82334 15.2337 7.85098 12.702 7.85098H11.4131C11.1035 7.85098 10.8426 8.07579 10.7943 8.38118L10.1344 12.5667L9.94749 13.7531C9.91607 13.9536 10.0707 14.1344 10.273 14.1344H12.5593C12.83 14.1344 13.0599 13.9377 13.1025 13.6707L13.125 13.5545L13.5555 10.8228L13.5832 10.673C13.6252 10.4051 13.8556 10.2084 14.1264 10.2084H14.4683C16.6833 10.2084 18.4173 9.30911 18.9241 6.70671C19.1358 5.61958 19.0262 4.71186 18.466 4.07344C18.2965 3.88094 18.0862 3.72122 17.8402 3.59101Z" fill="var(--fill-0, white)"/>
<path id="Vector_5" d="M17.2339 3.34953C17.1455 3.32376 17.0541 3.30034 16.9604 3.27927C16.8662 3.25866 16.7697 3.2404 16.6705 3.22447C16.3229 3.16826 15.9421 3.14157 15.5341 3.14157H12.0906C12.0058 3.14157 11.9253 3.16077 11.8532 3.19543C11.6943 3.27177 11.5764 3.42213 11.5478 3.6062L10.8151 8.24603L10.7941 8.38139C10.8423 8.076 11.1032 7.85117 11.4128 7.85117H12.7018C15.2335 7.85117 17.2157 6.82307 17.7951 3.84883C17.8123 3.76077 17.8269 3.67506 17.84 3.59122C17.6934 3.51346 17.5346 3.44695 17.3636 3.39027C17.3216 3.37622 17.278 3.36265 17.2339 3.34953Z" fill="var(--fill-0, white)"/>
<path id="Vector_6" d="M11.5478 3.6061C11.5764 3.42202 11.6945 3.27167 11.8532 3.19579C11.9259 3.16112 12.0059 3.14192 12.0906 3.14192H15.5343C15.9423 3.14192 16.323 3.16862 16.6705 3.22483C16.7699 3.24075 16.8664 3.25902 16.9605 3.27962C17.0542 3.30071 17.1455 3.32413 17.2341 3.34988C17.278 3.363 17.3216 3.37658 17.3642 3.39017C17.5352 3.44684 17.694 3.51382 17.8405 3.59111C18.013 2.4918 17.8392 1.74333 17.2449 1.06557C16.5896 0.319437 15.4069 0 13.8936 0H9.50002C9.19085 0 8.92726 0.224814 8.8794 0.530674L7.0495 12.1302C7.01336 12.3597 7.1904 12.5668 7.42176 12.5668H10.1343L10.8153 8.24592L11.5478 3.6061Z" fill="var(--fill-0, white)"/>
</g>
</svg>
