<svg preserveAspectRatio="none" width="100%" height="100%" overflow="visible" style="display: block;" viewBox="0 0 37.1656 9.2941" fill="none" xmlns="http://www.w3.org/2000/svg">
<path id="AMEX" fill-rule="evenodd" clip-rule="evenodd" d="M4.19444 0L0 9.28216H5.02133L5.64383 7.8022H7.06673L7.68923 9.28216H13.2163V8.15261L13.7088 9.28216H16.5678L17.0603 8.12873V9.28216H28.5552L29.9529 7.84063L31.2616 9.28216L37.1656 9.2941L32.9579 4.66699L37.1656 0H31.3532L29.9926 1.41489L28.7251 0H16.2202L15.1464 2.3958L14.0474 0H9.03657V1.09112L8.47914 0H4.19444ZM21.3596 1.31808H27.9605L29.9794 3.49887L32.0633 1.31808H34.0822L31.0147 4.66569L34.0822 7.97471H31.9718L29.9529 5.7686L27.8583 7.97471H21.3596V1.31808ZM22.9897 3.91303V2.69714V2.69598H27.1084L28.9056 4.64049L27.0288 6.59562H22.9897V5.26823H26.5907V3.91303H22.9897ZM5.16604 1.31808H7.61367L10.3958 7.61237V1.31808H13.0771L15.226 5.83105L17.2065 1.31808H19.8744V7.97865H18.251L18.2378 2.75947L15.8711 7.97865H14.4189L12.039 2.75947V7.97865H8.69941L8.06628 6.48543H4.64574L4.01392 7.97734H2.22461L5.16604 1.31808ZM5.2298 5.10504L6.35673 2.44501L7.48235 5.10504H5.2298Z" fill="var(--fill-0, white)"/>
</svg>
