<svg preserveAspectRatio="none" width="100%" height="100%" overflow="visible" style="display: block;" viewBox="0 0 55.4246 18.6457" fill="none" xmlns="http://www.w3.org/2000/svg">
<g id="Frame 4">
<g id="Safe">
<path id="Vector" d="M8.36249 0L0 2.66367V10.6547C0 15.0684 3.74352 18.6457 8.36249 18.6457C12.9815 18.6457 16.725 15.0684 16.725 10.6547V2.66367L8.36249 0ZM15.157 10.6547C15.157 14.2402 12.1147 17.1474 8.36249 17.1474C4.61026 17.1474 1.56797 14.2402 1.56797 10.6547V3.7874L8.36249 1.49831L15.157 3.7874V10.6547Z" fill="var(--fill-0, white)"/>
<path id="Vector_2" d="M5.45302 8.55469C5.38036 8.48494 5.29399 8.42959 5.19888 8.39182C5.10377 8.35405 5.00179 8.33461 4.89879 8.33461C4.79579 8.33461 4.69381 8.35405 4.5987 8.39182C4.50359 8.42959 4.41722 8.48494 4.34456 8.55469C4.27156 8.62413 4.21364 8.70666 4.17412 8.79754C4.13459 8.88843 4.11425 8.98588 4.11425 9.0843C4.11425 9.18272 4.13459 9.28018 4.17412 9.37106C4.21364 9.46195 4.27156 9.54448 4.34456 9.61392L7.16254 12.3067L7.20828 12.3504C7.27701 12.4162 7.35865 12.4684 7.44852 12.504C7.53839 12.5397 7.63473 12.558 7.73202 12.558C7.82931 12.558 7.92565 12.5397 8.01552 12.504C8.10539 12.4684 8.18703 12.4162 8.25577 12.3504L13.123 7.69941C13.1919 7.63373 13.2465 7.55572 13.2838 7.46984C13.321 7.38396 13.3402 7.2919 13.3402 7.19893C13.3402 7.10596 13.321 7.0139 13.2838 6.92802C13.2465 6.84214 13.1919 6.76413 13.123 6.69845L13.062 6.64018C12.9933 6.57438 12.9117 6.52217 12.8218 6.48656C12.7319 6.45094 12.6356 6.4326 12.5383 6.4326C12.441 6.4326 12.3446 6.45094 12.2548 6.48656C12.1649 6.52217 12.0833 6.57438 12.0145 6.64018L7.73093 10.7314L5.45302 8.55469Z" fill="var(--fill-0, white)"/>
</g>
<g id="Compra Segura">
<path d="M27.2656 7.68718C28.1619 7.68718 28.9257 7.36763 29.4323 6.77529L28.7776 6.15178C28.3801 6.58824 27.8891 6.79867 27.3201 6.79867C26.19 6.79867 25.3717 6.0037 25.3717 4.88138C25.3717 3.75906 26.19 2.96408 27.3201 2.96408C27.8891 2.96408 28.3801 3.17452 28.7776 3.60318L29.4323 2.98746C28.9257 2.39513 28.1619 2.07558 27.2734 2.07558C25.5977 2.07558 24.3507 3.25245 24.3507 4.88138C24.3507 6.5103 25.5977 7.68718 27.2656 7.68718Z" fill="var(--fill-0, white)"/>
<path d="M32.0279 7.6638C33.3217 7.6638 34.2492 6.77529 34.2492 5.52827C34.2492 4.28125 33.3217 3.40054 32.0279 3.40054C30.7497 3.40054 29.8144 4.28125 29.8144 5.52827C29.8144 6.77529 30.7497 7.6638 32.0279 7.6638ZM32.0279 6.82985C31.3264 6.82985 30.7965 6.32325 30.7965 5.52827C30.7965 4.73329 31.3264 4.22669 32.0279 4.22669C32.7371 4.22669 33.2671 4.73329 33.2671 5.52827C33.2671 6.32325 32.7371 6.82985 32.0279 6.82985Z" fill="var(--fill-0, white)"/>
<path d="M40.4339 3.40054C39.7714 3.40054 39.2102 3.66553 38.8751 4.09419C38.5867 3.62656 38.0801 3.40054 37.4722 3.40054C36.9032 3.40054 36.42 3.60318 36.1082 3.97729V3.4473H35.1808V7.60924H36.155V5.49709C36.155 4.67094 36.5915 4.25007 37.2384 4.25007C37.8307 4.25007 38.1736 4.60859 38.1736 5.34901V7.60924H39.1479V5.49709C39.1479 4.67094 39.5921 4.25007 40.2312 4.25007C40.8235 4.25007 41.1665 4.60859 41.1665 5.34901V7.60924H42.1407V5.22431C42.1407 3.96949 41.4393 3.40054 40.4339 3.40054Z" fill="var(--fill-0, white)"/>
<path d="M45.6927 3.40054C45.1237 3.40054 44.6405 3.59539 44.3131 3.99287V3.4473H43.3857V9.12125H44.3599V7.10264C44.695 7.48454 45.1627 7.6638 45.6927 7.6638C46.9085 7.6638 47.8048 6.82206 47.8048 5.52827C47.8048 4.24228 46.9085 3.40054 45.6927 3.40054ZM45.5835 6.82985C44.8821 6.82985 44.3443 6.32325 44.3443 5.52827C44.3443 4.73329 44.8821 4.22669 45.5835 4.22669C46.285 4.22669 46.815 4.73329 46.815 5.52827C46.815 6.32325 46.285 6.82985 45.5835 6.82985Z" fill="var(--fill-0, white)"/>
<path d="M49.6562 4.05522V3.4473H48.7287V7.60924H49.703V5.59062C49.703 4.74109 50.1706 4.30463 50.911 4.30463C50.9812 4.30463 51.0513 4.31242 51.1371 4.32801V3.40054C50.4434 3.40054 49.9368 3.61877 49.6562 4.05522Z" fill="var(--fill-0, white)"/>
<path d="M53.5306 3.40054C52.8604 3.40054 52.2135 3.572 51.7692 3.91493L52.1511 4.62418C52.4629 4.36698 52.9461 4.2111 53.4137 4.2111C54.1074 4.2111 54.4503 4.54624 54.4503 5.11519V5.17754H53.3748C52.1121 5.17754 51.6445 5.72312 51.6445 6.41677C51.6445 7.1416 52.2446 7.6638 53.1955 7.6638C53.819 7.6638 54.271 7.46115 54.5049 7.10264V7.60924H55.4245V5.16975C55.4245 3.96949 54.7309 3.40054 53.5306 3.40054ZM53.3981 6.95455C52.8993 6.95455 52.6032 6.72853 52.6032 6.3778C52.6032 6.07384 52.7824 5.82444 53.4449 5.82444H54.4503V6.30766C54.2866 6.73632 53.8736 6.95455 53.3981 6.95455Z" fill="var(--fill-0, white)"/>
<path d="M26.4316 15.0814C27.9281 15.0814 28.6373 14.3332 28.6373 13.4603C28.6373 11.4572 25.4028 12.2132 25.4028 11.0519C25.4028 10.6389 25.7458 10.3115 26.5875 10.3115C27.0629 10.3115 27.6007 10.4518 28.0917 10.7402L28.4113 9.953C27.9359 9.64125 27.25 9.46978 26.5953 9.46978C25.0989 9.46978 24.3974 10.218 24.3974 11.0987C24.3974 13.1251 27.6397 12.3535 27.6397 13.5304C27.6397 13.9357 27.2812 14.2396 26.4316 14.2396C25.7614 14.2396 25.0677 13.9902 24.6313 13.6395L24.2805 14.4267C24.7326 14.8164 25.5821 15.0814 26.4316 15.0814Z" fill="var(--fill-0, white)"/>
<path d="M33.461 12.9459C33.461 11.6443 32.5725 10.7947 31.3566 10.7947C30.1174 10.7947 29.2055 11.6832 29.2055 12.9225C29.2055 14.1617 30.1096 15.058 31.5047 15.058C32.2218 15.058 32.8063 14.8242 33.1804 14.3799L32.6582 13.7798C32.3621 14.0838 31.9957 14.2318 31.5281 14.2318C30.8033 14.2318 30.2967 13.8422 30.1798 13.2342H33.4454C33.4532 13.1407 33.461 13.0238 33.461 12.9459ZM31.3566 11.5741C31.9957 11.5741 32.4556 11.9872 32.5335 12.5873H30.172C30.2655 11.9794 30.7253 11.5741 31.3566 11.5741Z" fill="var(--fill-0, white)"/>
<path d="M37.6001 10.8415V11.3949C37.2572 10.9818 36.7428 10.7947 36.1582 10.7947C34.9658 10.7947 34.0539 11.5897 34.0539 12.7978C34.0539 14.0058 34.9658 14.8164 36.1582 14.8164C36.7194 14.8164 37.2104 14.6371 37.5533 14.263V14.4813C37.5533 15.323 37.1481 15.7439 36.2284 15.7439C35.6516 15.7439 35.0593 15.549 34.693 15.2451L34.2565 15.9777C34.732 16.3674 35.5035 16.57 36.2829 16.57C37.7404 16.57 38.5276 15.8842 38.5276 14.3721V10.8415H37.6001ZM36.3063 13.9902C35.5659 13.9902 35.0359 13.507 35.0359 12.7978C35.0359 12.0963 35.5659 11.6209 36.3063 11.6209C37.0389 11.6209 37.5689 12.0963 37.5689 12.7978C37.5689 13.507 37.0389 13.9902 36.3063 13.9902Z" fill="var(--fill-0, white)"/>
<path d="M42.8636 10.8415V12.9459C42.8636 13.7798 42.4038 14.2007 41.7257 14.2007C41.11 14.2007 40.7515 13.8422 40.7515 13.0861V10.8415H39.7772V13.2186C39.7772 14.4735 40.502 15.058 41.5698 15.058C42.1076 15.058 42.5986 14.8554 42.9104 14.4735V15.0034H43.8378V10.8415H42.8636Z" fill="var(--fill-0, white)"/>
<path d="M46.0409 11.4494V10.8415H45.1134V15.0034H46.0876V12.9848C46.0876 12.1353 46.5553 11.6988 47.2957 11.6988C47.3658 11.6988 47.436 11.7066 47.5217 11.7222V10.7947C46.8281 10.7947 46.3215 11.013 46.0409 11.4494Z" fill="var(--fill-0, white)"/>
<path d="M49.9153 10.7947C49.245 10.7947 48.5981 10.9662 48.1539 11.3091L48.5358 12.0184C48.8475 11.7612 49.3308 11.6053 49.7984 11.6053C50.4921 11.6053 50.835 11.9404 50.835 12.5094V12.5717H49.7594C48.4968 12.5717 48.0292 13.1173 48.0292 13.811C48.0292 14.5358 48.6293 15.058 49.5802 15.058C50.2037 15.058 50.6557 14.8554 50.8895 14.4968V15.0034H51.8092V12.564C51.8092 11.3637 51.1156 10.7947 49.9153 10.7947ZM49.7828 14.3488C49.284 14.3488 48.9878 14.1227 48.9878 13.772C48.9878 13.468 49.1671 13.2186 49.8296 13.2186H50.835V13.7019C50.6713 14.1305 50.2582 14.3488 49.7828 14.3488Z" fill="var(--fill-0, white)"/>
</g>
</g>
</svg>
