<svg preserveAspectRatio="none" width="100%" height="100%" overflow="visible" style="display: block;" viewBox="0 0 28.82 17.6836" fill="none" xmlns="http://www.w3.org/2000/svg">
<g id="Mastercard">
<path id="Left" d="M20.0791 0C24.9063 0 28.8193 3.9586 28.8193 8.8418C28.8193 13.725 24.9063 17.6836 20.0791 17.6836C17.9149 17.6836 15.9357 16.8864 14.4092 15.5684C12.8828 16.8861 10.9042 17.6836 8.74023 17.6836C3.91312 17.6835 0 13.725 0 8.8418C2.80215e-05 3.95865 3.91314 8.23802e-05 8.74023 0C10.9042 0 12.8828 0.797555 14.4092 2.11523C15.9356 0.797207 17.9149 3.88048e-05 20.0791 0Z" fill="var(--fill-0, white)"/>
<path id="Right" d="M20.0797 0C24.9067 0.000266287 28.8199 3.95877 28.82 8.8418C28.82 13.7249 24.9067 17.6833 20.0797 17.6836C17.9156 17.6836 15.9363 16.8863 14.4098 15.5684C16.2882 13.9466 17.4811 11.5358 17.4811 8.8418C17.4811 6.14781 16.2882 3.73697 14.4098 2.11523C15.9363 0.797366 17.9157 0 20.0797 0Z" fill="var(--fill-0, white)"/>
<path id="Middle" d="M14.4093 2.11517C16.2879 3.7369 17.4805 6.14761 17.4805 8.84173C17.4805 11.5359 16.2878 13.9465 14.4093 15.5683C12.5311 13.9466 11.3389 11.5355 11.3389 8.84173C11.339 6.14793 12.531 3.73689 14.4093 2.11517Z" fill="var(--fill-0, white)"/>
</g>
</svg>
