<svg preserveAspectRatio="none" width="100%" height="100%" overflow="visible" style="display: block;" viewBox="0 0 32.5539 11.5279" fill="none" xmlns="http://www.w3.org/2000/svg">
<g id="g966">
<g id="g972">
<path id="path974" d="M13.3789 10.7611V4.15156C13.3789 3.8624 13.4359 3.57608 13.5465 3.30895C13.6572 3.04181 13.8194 2.7991 14.0239 2.59466C14.2284 2.39023 14.4712 2.22809 14.7384 2.11749C15.0055 2.0069 15.2919 1.95002 15.581 1.9501H17.5304C18.1127 1.95131 18.6709 2.1835 19.0822 2.59574C19.4936 3.00797 19.7247 3.56657 19.7247 4.14896V5.55573C19.7247 6.13977 19.4927 6.69988 19.0797 7.11286C18.6667 7.52583 18.1066 7.75784 17.5226 7.75784H14.7655" stroke="var(--stroke-0, white)" stroke-width="0.480702" stroke-linecap="round" stroke-linejoin="round"/>
</g>
<g id="g976">
<path id="path978" d="M20.2718 1.9488H21.1165C21.3562 1.9488 21.5861 2.04403 21.7556 2.21353C21.9251 2.38304 22.0203 2.61293 22.0203 2.85265V7.79098" stroke="var(--stroke-0, white)" stroke-width="0.480702" stroke-linecap="round" stroke-linejoin="round"/>
</g>
<g id="g980">
<path id="path982" d="M21.8377 1.18401L21.4544 0.799991C21.4317 0.777356 21.4137 0.750467 21.4014 0.720864C21.3891 0.691261 21.3828 0.659525 21.3828 0.627474C21.3828 0.595423 21.3891 0.563687 21.4014 0.534084C21.4137 0.504481 21.4317 0.477592 21.4544 0.454957L21.8377 0.0715873C21.8604 0.0488954 21.8873 0.0308902 21.9169 0.0186062C21.9465 0.00632224 21.9782 0 22.0103 0C22.0423 0 22.074 0.00632224 22.1037 0.0186062C22.1333 0.0308902 22.1601 0.0488954 22.1828 0.0715873L22.5668 0.454957C22.5895 0.477592 22.6075 0.504481 22.6198 0.534084C22.6321 0.563687 22.6384 0.595423 22.6384 0.627474C22.6384 0.659525 22.6321 0.691261 22.6198 0.720864C22.6075 0.750467 22.5895 0.777356 22.5668 0.799991L22.1828 1.18401C22.1601 1.2067 22.1333 1.22471 22.1037 1.23699C22.074 1.24927 22.0423 1.2556 22.0103 1.2556C21.9782 1.2556 21.9465 1.24927 21.9169 1.23699C21.8873 1.22471 21.8604 1.2067 21.8377 1.18401" fill="var(--fill-0, white)"/>
</g>
<g id="g984">
<path id="path986" d="M23.6461 1.9449H24.4856C24.9175 1.94498 25.3316 2.11653 25.637 2.42184L27.6007 4.38483C27.661 4.44544 27.7328 4.49353 27.8118 4.52634C27.8908 4.55916 27.9755 4.57605 28.061 4.57605C28.1466 4.57605 28.2313 4.55916 28.3103 4.52634C28.3893 4.49353 28.461 4.44544 28.5214 4.38483L30.4798 2.42899C30.631 2.27776 30.8105 2.15779 31.0081 2.07596C31.2056 1.99412 31.4174 1.95202 31.6312 1.95205H32.3135" stroke="var(--stroke-0, white)" stroke-width="0.480702" stroke-linecap="round" stroke-linejoin="round"/>
</g>
<g id="g988">
<path id="path990" d="M23.6461 7.74679H24.4856C24.9175 7.74672 25.3316 7.57517 25.637 7.26986L27.6007 5.30752C27.661 5.24691 27.7328 5.19882 27.8118 5.166C27.8908 5.13319 27.9755 5.11629 28.061 5.11629C28.1466 5.11629 28.2313 5.13319 28.3103 5.166C28.3893 5.19882 28.461 5.24691 28.5214 5.30752L30.4798 7.26271C30.631 7.41394 30.8105 7.53391 31.0081 7.61574C31.2056 7.69758 31.4174 7.73968 31.6312 7.73965H32.3135" stroke="var(--stroke-0, white)" stroke-width="0.480702" stroke-linecap="round" stroke-linejoin="round"/>
</g>
<g id="g992">
<path id="path994" d="M8.3743 9.00087C8.16702 9.0015 7.96167 8.96099 7.77016 8.88168C7.57865 8.80238 7.40478 8.68586 7.25862 8.53887L5.64781 6.93197C5.59094 6.87736 5.51515 6.84687 5.43631 6.84687C5.35747 6.84687 5.28168 6.87736 5.22481 6.93197L3.60815 8.54797C3.462 8.69496 3.28813 8.81148 3.09662 8.89078C2.90511 8.97008 2.69977 9.0106 2.49249 9.00996H2.17539L4.21505 11.0503C4.52112 11.3561 4.93608 11.5279 5.36874 11.5279C5.8014 11.5279 6.21636 11.3561 6.52242 11.0503L8.56793 9.00412L8.3743 9.00087Z" fill="var(--fill-0, white)"/>
</g>
<g id="g996">
<path id="path998" d="M2.49248 3.3036C2.69974 3.30311 2.90504 3.34368 3.09654 3.42298C3.28803 3.50228 3.46191 3.61872 3.60815 3.76559L5.2248 5.38224C5.28096 5.43823 5.35701 5.46967 5.43631 5.46967C5.5156 5.46967 5.59166 5.43823 5.64781 5.38224L7.25862 3.77144C7.40486 3.62457 7.57874 3.50812 7.77024 3.42883C7.96173 3.34953 8.16704 3.30896 8.3743 3.30944H8.56923L6.52371 1.26393C6.37225 1.11236 6.19241 0.992115 5.99445 0.910076C5.7965 0.828037 5.58431 0.785809 5.37003 0.785809C5.15575 0.785809 4.94357 0.828037 4.74562 0.910076C4.54766 0.992115 4.36782 1.11236 4.21635 1.26393L2.17669 3.3036H2.49248Z" fill="var(--fill-0, white)"/>
</g>
<g id="g1000">
<path id="path1002" d="M10.2606 5.00147L9.02601 3.76689C8.9981 3.77806 8.96836 3.784 8.9383 3.78443H8.37623C8.08364 3.78565 7.80338 3.90242 7.5965 4.10932L5.9831 5.71688C5.91139 5.7887 5.8262 5.84564 5.73242 5.88445C5.63864 5.92325 5.53812 5.94315 5.43663 5.943C5.23157 5.94336 5.03478 5.86226 4.88952 5.71753L3.27287 4.10088C3.06598 3.89397 2.78572 3.7772 2.49313 3.77599H1.80241C1.77389 3.77546 1.7457 3.76973 1.71924 3.75909L0.478159 5.00017C0.326583 5.15163 0.206341 5.33148 0.124302 5.52944C0.042263 5.72739 3.30766e-05 5.93957 3.30766e-05 6.15386C3.30766e-05 6.36814 0.042263 6.58032 0.124302 6.77827C0.206341 6.97623 0.326583 7.15608 0.478159 7.30754L1.71924 8.54862C1.7457 8.53798 1.77389 8.53225 1.80241 8.53173H2.49313C2.78568 8.5303 3.06586 8.41356 3.27287 8.20684L4.88952 6.59018C5.03685 6.44961 5.23266 6.37118 5.4363 6.37118C5.63994 6.37118 5.83576 6.44961 5.9831 6.59018L7.5939 8.20099C7.80091 8.40771 8.08109 8.52446 8.37364 8.52588H8.93569C8.96584 8.5262 8.99564 8.53238 9.02342 8.54407L10.258 7.30949C10.5638 7.00342 10.7356 6.58847 10.7356 6.15581C10.7356 5.72315 10.5638 5.30819 10.258 5.00212" fill="var(--fill-0, white)"/>
</g>
<g id="g1004">
<path id="path1006" d="M15.0573 10.1991C14.955 10.2036 14.8535 10.2191 14.7545 10.2452V10.6481C14.8303 10.6747 14.91 10.6881 14.9904 10.6877C15.1924 10.6877 15.288 10.6195 15.288 10.4414C15.288 10.2744 15.2093 10.1991 15.0573 10.1991V10.1991ZM14.6863 10.947V10.151H14.7421L14.748 10.1854C14.851 10.1579 14.9566 10.1409 15.0631 10.1347C15.1369 10.1296 15.2101 10.1508 15.2698 10.1945C15.3024 10.2263 15.3275 10.2649 15.3433 10.3076C15.359 10.3504 15.365 10.3961 15.3607 10.4414C15.3646 10.492 15.3545 10.5427 15.3316 10.5879C15.3087 10.6332 15.2738 10.6713 15.2308 10.6981C15.1579 10.734 15.0774 10.7519 14.9962 10.7501C14.914 10.7496 14.8324 10.7371 14.7538 10.713V10.947H14.6863Z" fill="var(--fill-0, white)"/>
</g>
<g id="g1008">
<path id="path1010" d="M15.8676 10.1971C15.6655 10.1971 15.5758 10.2621 15.5758 10.4382C15.5758 10.6143 15.6648 10.6877 15.8676 10.6877C16.0703 10.6877 16.1587 10.6227 16.1587 10.4473C16.1587 10.2718 16.0696 10.1971 15.8676 10.1971V10.1971ZM16.1275 10.6877C16.0497 10.7358 15.9588 10.7585 15.8676 10.7527C15.7763 10.7581 15.6856 10.7355 15.6076 10.6877C15.5713 10.6588 15.5427 10.6212 15.5245 10.5784C15.5064 10.5356 15.4992 10.489 15.5037 10.4427C15.4995 10.3964 15.5068 10.3498 15.525 10.3069C15.5431 10.2641 15.5715 10.2264 15.6076 10.1971C15.6855 10.149 15.7763 10.1263 15.8676 10.1321C15.9588 10.1265 16.0496 10.1492 16.1275 10.1971C16.1636 10.2261 16.192 10.2636 16.2102 10.3062C16.2283 10.3488 16.2356 10.3953 16.2314 10.4414C16.2359 10.4879 16.2287 10.5347 16.2106 10.5777C16.1924 10.6207 16.1639 10.6585 16.1275 10.6877" fill="var(--fill-0, white)"/>
</g>
<g id="g1012">
<path id="path1014" d="M17.0833 10.7338L16.8585 10.2504H16.8539L16.6324 10.7338H16.5745L16.3341 10.149H16.4095L16.609 10.6383H16.6135L16.8305 10.149H16.8955L17.1184 10.6383H17.1229L17.3179 10.149H17.3906L17.1509 10.7338H17.0833Z" fill="var(--fill-0, white)"/>
</g>
<g id="g1016">
<path id="path1018" d="M17.8201 10.1958C17.633 10.1958 17.57 10.279 17.5602 10.3992H18.084C18.0788 10.266 18.0105 10.1958 17.824 10.1958H17.8201ZM17.824 10.7501C17.738 10.7592 17.6516 10.7361 17.5817 10.6851C17.5481 10.6543 17.5219 10.6164 17.505 10.5741C17.4882 10.5318 17.481 10.4862 17.4842 10.4408C17.4817 10.3936 17.4902 10.3465 17.509 10.3032C17.5278 10.2599 17.5565 10.2216 17.5927 10.1913C17.6607 10.1489 17.7401 10.1284 17.8201 10.1328C17.9018 10.1277 17.9831 10.1474 18.0534 10.1893C18.1379 10.2458 18.1541 10.3453 18.1541 10.4583H17.5557C17.5557 10.5779 17.5973 10.6845 17.8234 10.6845C17.9247 10.682 18.0256 10.6707 18.1249 10.6507V10.7117C18.0239 10.7328 17.9213 10.745 17.8182 10.7481" fill="var(--fill-0, white)"/>
</g>
<g id="g1020">
<path id="path1022" d="M18.3491 10.7338V10.149H18.405L18.4108 10.1835C18.5043 10.1528 18.6016 10.1357 18.7 10.1328H18.7084V10.1978H18.6922C18.5988 10.1998 18.5062 10.2153 18.4173 10.2439V10.7325L18.3491 10.7338Z" fill="var(--fill-0, white)"/>
</g>
<g id="g1024">
<path id="path1026" d="M19.1041 10.1958C18.917 10.1958 18.8533 10.279 18.8442 10.3992H19.3686C19.3627 10.266 19.2945 10.1958 19.1087 10.1958H19.1041ZM19.1087 10.7501C19.0226 10.759 18.9363 10.7359 18.8663 10.6851C18.8341 10.654 18.8093 10.6161 18.7935 10.5742C18.7778 10.5322 18.7716 10.4873 18.7753 10.4427C18.7728 10.3956 18.7813 10.3485 18.8001 10.3052C18.819 10.2619 18.8476 10.2235 18.8838 10.1932C18.9518 10.1508 19.0312 10.1304 19.1113 10.1347C19.1927 10.1297 19.2738 10.1494 19.3439 10.1913C19.4284 10.2478 19.4446 10.3472 19.4446 10.4603H18.8468C18.8468 10.5798 18.8884 10.6864 19.1145 10.6864C19.2158 10.6839 19.3167 10.6726 19.416 10.6526V10.7137C19.3148 10.7348 19.212 10.7469 19.1087 10.7501" fill="var(--fill-0, white)"/>
</g>
<g id="g1028">
<path id="path1030" d="M20.1834 10.2361C20.1078 10.2097 20.0283 10.1965 19.9482 10.1971C19.7461 10.1971 19.6499 10.2653 19.6499 10.4427C19.6499 10.6201 19.7286 10.6851 19.8813 10.6851C19.9832 10.6803 20.0844 10.6653 20.1834 10.6403V10.2361ZM20.1964 10.7338L20.1906 10.6987C20.0875 10.7265 19.9819 10.7437 19.8754 10.7501C19.8015 10.7557 19.728 10.7343 19.6688 10.6896C19.6359 10.658 19.6106 10.6194 19.5947 10.5767C19.5789 10.5339 19.5729 10.4881 19.5772 10.4427C19.5733 10.3923 19.5834 10.3419 19.6063 10.2968C19.6293 10.2518 19.6641 10.2139 19.7071 10.1874C19.7802 10.1506 19.8612 10.1325 19.943 10.1347C20.0247 10.1357 20.1058 10.1482 20.1841 10.1718V9.90471H20.2523V10.7338H20.1964Z" fill="var(--fill-0, white)"/>
</g>
<g id="g1032">
<path id="path1034" d="M21.2529 10.1991C21.1507 10.2036 21.0492 10.2191 20.9501 10.2452V10.6468C21.0257 10.6743 21.1056 10.6882 21.186 10.6877C21.3881 10.6877 21.4836 10.6195 21.4836 10.4414C21.4836 10.2744 21.405 10.1991 21.2529 10.1991V10.1991ZM21.4271 10.6981C21.3542 10.734 21.2737 10.7519 21.1925 10.7501C21.1041 10.7492 21.0164 10.7342 20.9326 10.7059V10.7338H20.8858V9.90471H20.9508V10.1809C21.0519 10.1551 21.1553 10.139 21.2594 10.1328C21.3332 10.1277 21.4064 10.1489 21.4661 10.1926C21.4987 10.2243 21.5238 10.263 21.5396 10.3057C21.5553 10.3484 21.5613 10.3941 21.557 10.4395C21.5609 10.4901 21.5508 10.5407 21.5279 10.586C21.505 10.6312 21.4701 10.6693 21.4271 10.6961" fill="var(--fill-0, white)"/>
</g>
<g id="g1036">
<path id="path1038" d="M21.6428 10.9606V10.8956C21.6759 10.8956 21.7078 10.9015 21.7292 10.9015C21.7687 10.9047 21.8081 10.8946 21.8412 10.8728C21.8743 10.8511 21.8992 10.8188 21.9118 10.7813L21.9339 10.7351L21.6292 10.1503H21.7078L21.9677 10.6533H21.9722L22.2205 10.1503H22.2978L21.9729 10.8047C21.9125 10.9236 21.8481 10.9626 21.7292 10.9626C21.7004 10.9639 21.6715 10.9632 21.6428 10.9606Z" fill="var(--fill-0, white)"/>
</g>
<g id="g1040">
<path id="path1042" d="M23.2387 10.4011H23.0119V10.6058H23.2393C23.3953 10.6058 23.4544 10.5883 23.4544 10.5025C23.4544 10.4167 23.3732 10.4011 23.2387 10.4011V10.4011ZM23.1971 10.0698H23.0119V10.2777H23.1977C23.3517 10.2777 23.4128 10.2595 23.4128 10.1724C23.4128 10.0854 23.3355 10.0698 23.1971 10.0698V10.0698ZM23.548 10.6786C23.4648 10.7312 23.3641 10.7338 23.1808 10.7338H22.8358V9.94305H23.1724C23.3309 9.94305 23.4278 9.94305 23.5083 9.99373C23.5352 10.0098 23.557 10.033 23.5714 10.0608C23.5857 10.0886 23.592 10.1198 23.5896 10.151C23.5916 10.19 23.5803 10.2285 23.5577 10.2604C23.535 10.2922 23.5023 10.3155 23.4648 10.3264V10.331C23.5662 10.3537 23.6318 10.4057 23.6318 10.5181C23.6343 10.55 23.6277 10.582 23.6129 10.6104C23.5981 10.6387 23.5756 10.6624 23.548 10.6786" fill="var(--fill-0, white)"/>
</g>
<g id="g1044">
<path id="path1046" d="M24.3225 10.4889C24.2575 10.483 24.1854 10.4798 24.1126 10.4798C23.9937 10.4798 23.9521 10.5038 23.9521 10.5584C23.9521 10.613 23.9866 10.6364 24.0775 10.6364C24.1602 10.6335 24.2423 10.6219 24.3225 10.6019V10.4889ZM24.3569 10.7338L24.3524 10.6987C24.2493 10.728 24.1431 10.7453 24.036 10.7501C23.9742 10.7542 23.9128 10.7392 23.8599 10.7072C23.8383 10.6909 23.821 10.6694 23.8097 10.6448C23.7983 10.6202 23.7933 10.5932 23.7949 10.5662C23.7934 10.533 23.802 10.5002 23.8195 10.472C23.837 10.4439 23.8626 10.4216 23.893 10.4083C23.9629 10.3821 24.0375 10.3711 24.112 10.3758C24.1731 10.3758 24.2549 10.3791 24.3232 10.3836V10.3758C24.3232 10.2848 24.2634 10.2549 24.099 10.2549C24.034 10.2549 23.9586 10.2582 23.8846 10.2653V10.1471C23.9664 10.1406 24.0587 10.136 24.1347 10.136C24.2285 10.1278 24.3228 10.1465 24.4063 10.19C24.4713 10.2374 24.4856 10.303 24.4856 10.3901V10.7351L24.3569 10.7338Z" fill="var(--fill-0, white)"/>
</g>
<g id="g1048">
<path id="path1050" d="M25.2465 10.7338V10.4089C25.2465 10.303 25.1919 10.2647 25.0951 10.2647C25.0147 10.2681 24.9349 10.2806 24.8573 10.3017V10.7312H24.6968V10.1464H24.8267L24.8326 10.1828C24.934 10.1534 25.0384 10.1357 25.1438 10.1302C25.2157 10.1246 25.287 10.1459 25.344 10.19C25.3676 10.2137 25.3857 10.2424 25.3969 10.274C25.4082 10.3055 25.4123 10.3392 25.4089 10.3726V10.7293L25.2465 10.7338Z" fill="var(--fill-0, white)"/>
</g>
<g id="g1052">
<path id="path1054" d="M25.8664 10.7501C25.789 10.7561 25.712 10.7342 25.6493 10.6883C25.6162 10.657 25.5906 10.6184 25.5746 10.5756C25.5586 10.5328 25.5526 10.4869 25.5571 10.4414C25.554 10.3932 25.5633 10.3451 25.5841 10.3015C25.6049 10.2579 25.6366 10.2204 25.676 10.1926C25.7539 10.1489 25.8429 10.1288 25.932 10.1347C25.997 10.1347 26.0652 10.1393 26.1373 10.1458V10.2705C26.0788 10.2653 26.0074 10.2601 25.9515 10.2601C25.7968 10.2601 25.7241 10.3089 25.7241 10.4427C25.7241 10.5766 25.7786 10.6227 25.9054 10.6227C25.9877 10.6202 26.0697 10.6102 26.1503 10.5928V10.713C26.0571 10.7345 25.962 10.7469 25.8664 10.7501Z" fill="var(--fill-0, white)"/>
</g>
<g id="g1056">
<path id="path1058" d="M26.6325 10.2569C26.4778 10.2569 26.4096 10.3056 26.4096 10.4382C26.4096 10.5707 26.4746 10.6273 26.6325 10.6273C26.7904 10.6273 26.8527 10.5798 26.8527 10.4473C26.8527 10.3147 26.7878 10.2569 26.6325 10.2569V10.2569ZM26.9119 10.6883C26.827 10.7364 26.7297 10.7579 26.6325 10.7501C26.5349 10.7576 26.4372 10.7362 26.3518 10.6883C26.3137 10.6605 26.2836 10.6232 26.2643 10.5801C26.2451 10.537 26.2374 10.4897 26.242 10.4427C26.2374 10.3956 26.2451 10.3481 26.2643 10.3048C26.2836 10.2615 26.3137 10.224 26.3518 10.1958C26.4373 10.1482 26.5349 10.127 26.6325 10.1347C26.7296 10.1273 26.8267 10.1485 26.9119 10.1958C26.9497 10.2239 26.9795 10.2613 26.9985 10.3043C27.0175 10.3474 27.0251 10.3946 27.0204 10.4414C27.025 10.4884 27.0174 10.5358 26.9984 10.5791C26.9794 10.6223 26.9496 10.6599 26.9119 10.6883" fill="var(--fill-0, white)"/>
</g>
<g id="g1060">
<path id="path1062" d="M27.96 10.7501C27.8586 10.7565 27.7582 10.7273 27.676 10.6676C27.5811 10.5896 27.5526 10.4681 27.5526 10.3375C27.5492 10.2725 27.5621 10.2078 27.5901 10.1491C27.6181 10.0904 27.6604 10.0397 27.7131 10.0015C27.8151 9.94508 27.9313 9.91914 28.0477 9.92681C28.1354 9.92681 28.2251 9.93266 28.3232 9.94045V10.0828C28.2394 10.0756 28.1354 10.0698 28.0548 10.0698C27.8294 10.0698 27.7338 10.1555 27.7338 10.3375C27.7338 10.5194 27.8222 10.6065 27.9886 10.6065C28.1073 10.6026 28.2252 10.5867 28.3407 10.559V10.7007C28.2158 10.73 28.0882 10.7467 27.96 10.7507" fill="var(--fill-0, white)"/>
</g>
<g id="g1064">
<path id="path1066" d="M28.819 10.2387C28.6838 10.2387 28.6318 10.2868 28.624 10.3758H29.0139C29.0094 10.2809 28.9541 10.2387 28.819 10.2387ZM28.7949 10.7501C28.7076 10.758 28.6202 10.735 28.548 10.6851C28.515 10.6542 28.4894 10.6162 28.4732 10.574C28.457 10.5318 28.4506 10.4865 28.4545 10.4414C28.4519 10.3948 28.4605 10.3482 28.4794 10.3055C28.4984 10.2628 28.5273 10.2252 28.5636 10.1958C28.6404 10.1497 28.7296 10.1283 28.819 10.1347C28.9071 10.1293 28.995 10.1496 29.0717 10.1932C29.1653 10.2582 29.1731 10.3609 29.1744 10.4811H28.6201C28.624 10.5701 28.6715 10.6273 28.8352 10.6273C28.9393 10.625 29.0432 10.615 29.1458 10.5974V10.7117C29.03 10.7337 28.9127 10.7465 28.7949 10.7501Z" fill="var(--fill-0, white)"/>
</g>
<g id="g1068">
<path id="path1070" d="M29.8983 10.7338V10.4089C29.8983 10.303 29.8443 10.2647 29.7475 10.2647C29.6671 10.2681 29.5873 10.2806 29.5097 10.3017V10.7312H29.3466V10.1464H29.4798L29.4857 10.1828C29.587 10.1533 29.6915 10.1357 29.7969 10.1302C29.8687 10.1246 29.94 10.1459 29.997 10.19C30.0207 10.2137 30.0388 10.2424 30.05 10.274C30.0612 10.3055 30.0653 10.3392 30.062 10.3726V10.7293L29.8983 10.7338Z" fill="var(--fill-0, white)"/>
</g>
<g id="g1072">
<path id="path1074" d="M30.5233 10.7501C30.4873 10.7536 30.451 10.7478 30.4179 10.7332C30.3848 10.7186 30.356 10.6958 30.3343 10.6669C30.302 10.6139 30.287 10.5521 30.2914 10.4902V10.2718H30.1738V10.151H30.2914L30.3089 9.97424H30.4532V10.151H30.6825V10.2718H30.4532V10.459C30.4509 10.4967 30.4564 10.5346 30.4694 10.5701C30.4793 10.589 30.4948 10.6043 30.5138 10.6139C30.5328 10.6236 30.5543 10.6271 30.5753 10.624C30.6144 10.6234 30.6533 10.6194 30.6916 10.6123V10.7293C30.6363 10.7414 30.58 10.7484 30.5233 10.7501" fill="var(--fill-0, white)"/>
</g>
<g id="g1076">
<path id="path1078" d="M30.8417 10.7338V10.149H30.9717L30.9775 10.1854C31.0707 10.154 31.1678 10.1363 31.2661 10.1328H31.2868V10.2718C31.268 10.2718 31.2466 10.2718 31.2303 10.2718C31.1531 10.2721 31.0763 10.2822 31.0016 10.3017V10.7325L30.8417 10.7338Z" fill="var(--fill-0, white)"/>
</g>
<g id="g1080">
<path id="path1082" d="M31.8814 10.4889C31.8132 10.483 31.7436 10.4798 31.6709 10.4798C31.552 10.4798 31.5104 10.5038 31.5104 10.5584C31.5104 10.613 31.5455 10.6364 31.6364 10.6364C31.7191 10.6334 31.8011 10.6218 31.8814 10.6019V10.4889ZM31.9158 10.7338L31.9093 10.7007C31.8062 10.7299 31.7 10.7472 31.5929 10.752C31.531 10.7561 31.4693 10.7411 31.4161 10.7091C31.3946 10.6927 31.3775 10.6713 31.3661 10.6467C31.3548 10.6221 31.3497 10.5952 31.3512 10.5681C31.3496 10.534 31.3587 10.5003 31.3772 10.4717C31.3957 10.443 31.4228 10.4208 31.4545 10.4083C31.524 10.3827 31.5982 10.3721 31.6722 10.3771C31.7332 10.3771 31.8158 10.3804 31.884 10.3849V10.3758C31.884 10.2848 31.8236 10.2549 31.6598 10.2549C31.5948 10.2549 31.5188 10.2582 31.4447 10.2653V10.1471C31.5273 10.1406 31.6195 10.136 31.6956 10.136C31.7892 10.1278 31.8832 10.1465 31.9665 10.19C32.0315 10.2374 32.0464 10.303 32.0464 10.3901V10.7351L31.9158 10.7338Z" fill="var(--fill-0, white)"/>
</g>
<path id="path1084" d="M32.2531 9.90471H32.4162V10.7338H32.2531V9.90471Z" fill="var(--fill-0, white)"/>
</g>
</svg>
