<svg preserveAspectRatio="none" width="100%" height="100%" overflow="visible" style="display: block;" viewBox="0 0 31.4834 17.9322" fill="none" xmlns="http://www.w3.org/2000/svg">
<g id="Frame" clip-path="url(#clip0_0_182)">
<path id="path4" d="M-8.78153e-05 9.32673e-05H0.3558V9.4496H-8.78153e-05V9.32673e-05ZM0.711688 9.32673e-05H1.06758V9.4496H0.711688V9.32673e-05ZM2.84861 9.32673e-05H3.20449V9.4496H2.84861V9.32673e-05ZM9.77594 9.32673e-05H10.1318V9.4496H9.77594V9.32673e-05ZM12.0918 9.32673e-05H12.4477V9.4496H12.0918V9.32673e-05ZM14.3376 9.32673e-05H14.6934V9.4496H14.3376V9.32673e-05ZM14.9163 9.32673e-05H15.2722V9.4496H14.9168L14.9163 9.32673e-05ZM15.4959 9.32673e-05H15.8518V9.4496H15.4959V9.32673e-05ZM16.1472 9.32673e-05H16.5031V9.4496H16.1473L16.1472 9.32673e-05ZM16.7984 9.32673e-05H17.1543V9.4496H16.7984V9.32673e-05ZM18.6089 9.32673e-05H18.9648V9.4496H18.6085L18.6089 9.32673e-05ZM23.0979 9.32673e-05H23.4538V9.4496H23.0979V9.32673e-05ZM27.7804 9.32673e-05H28.1362V9.4496H27.7803L27.7804 9.32673e-05ZM29.0612 9.32673e-05H29.4171V9.4496H29.0612V9.32673e-05ZM29.9871 9.32673e-05H30.343V9.4496H29.9871V9.32673e-05ZM30.5569 9.32673e-05H30.9127V9.4496H30.5569V9.32673e-05ZM5.19886 9.32673e-05H5.55475V9.4496H5.19886V9.32673e-05ZM1.63766 9.32673e-05H2.27853V9.4496H1.63766V9.32673e-05ZM5.86677 9.32673e-05H6.50751V9.4496H5.86677V9.32673e-05ZM8.83633 9.32673e-05H9.47707V9.4496H8.83633V9.32673e-05ZM10.3566 9.32673e-05H10.9974V9.4496H10.3566V9.32673e-05ZM12.7459 9.32673e-05H13.3866V9.4496H12.7459V9.32673e-05ZM19.5576 9.32673e-05H20.5542V9.4496H19.5576V9.32673e-05ZM20.8594 9.32673e-05H21.6422V9.4496H20.8586L20.8594 9.32673e-05ZM22.2331 9.32673e-05H22.8739V9.4496H22.2331V9.32673e-05ZM24.0496 9.32673e-05H25.118V9.4496H24.0496V9.32673e-05ZM26.1418 9.32673e-05H27.2103V9.4496H26.1418V9.32673e-05ZM3.56074 9.32673e-05H4.84224V9.4496H3.56074V9.32673e-05ZM6.88229 9.32673e-05H7.87892V9.4496H6.88229V9.32673e-05Z" fill="var(--fill-0, white)"/>
<path id="path6" d="M0.460815 17.8401V12.4315H2.49039C2.82955 12.4184 3.16784 12.4742 3.48483 12.5955C3.72781 12.6994 3.93263 12.876 4.07112 13.101C4.20838 13.314 4.28205 13.5616 4.28348 13.815C4.28349 14.046 4.21829 14.2723 4.09536 14.4679C3.95687 14.6834 3.75973 14.8548 3.52711 14.962C3.82563 15.0387 4.09089 15.2109 4.28251 15.4524C4.45982 15.6881 4.55268 15.9766 4.54616 16.2715C4.54826 16.5163 4.49342 16.7582 4.38595 16.9781C4.2951 17.1753 4.15862 17.3481 3.98778 17.4821C3.80997 17.6096 3.60863 17.7008 3.39541 17.7501C3.10951 17.8157 2.81668 17.8461 2.52341 17.8407L0.460815 17.8401ZM1.17723 14.7044H2.34687C2.5753 14.7133 2.80391 14.6922 3.02685 14.6416C3.19002 14.6003 3.3347 14.5056 3.43793 14.3726C3.53403 14.2344 3.58257 14.0686 3.57621 13.9004C3.57951 13.7334 3.53467 13.5689 3.44706 13.4267C3.36347 13.2916 3.23352 13.1917 3.08155 13.1456C2.81189 13.0836 2.53511 13.0581 2.25866 13.0699H1.17747L1.17723 14.7044ZM1.17723 17.2021H2.52365C2.68652 17.2064 2.84948 17.1978 3.01101 17.1765C3.15711 17.1528 3.29736 17.1014 3.42428 17.0253C3.54026 16.9504 3.63437 16.8461 3.69707 16.7231C3.77029 16.5834 3.8072 16.4275 3.80441 16.2698C3.80945 16.0816 3.75528 15.8965 3.64956 15.7408C3.54518 15.5913 3.39385 15.4809 3.21959 15.4273C2.96193 15.3576 2.69525 15.327 2.4285 15.3366H1.17723V17.2021ZM5.59214 15.2065C5.54675 14.4358 5.80641 13.6781 6.31501 13.0972C6.55472 12.8455 6.84507 12.6475 7.16691 12.5162C7.48876 12.3849 7.83479 12.3233 8.18217 12.3355C8.65655 12.3291 9.12359 12.453 9.53238 12.6937C9.92974 12.9286 10.2487 13.2759 10.449 13.6918C10.6649 14.1448 10.7727 14.6417 10.764 15.1434C10.7731 15.6534 10.6596 16.1582 10.4331 16.6153C10.2275 17.0313 9.89911 17.3741 9.49242 17.5976C9.09036 17.8192 8.63823 17.9342 8.17913 17.9315C7.69874 17.9394 7.22584 17.8119 6.81454 17.5636C6.41881 17.3237 6.10182 16.9733 5.90258 16.5556C5.69714 16.1356 5.59093 15.674 5.59214 15.2065V15.2065ZM6.33036 15.2178C6.29964 15.7806 6.48935 16.3332 6.85926 16.7585C7.02613 16.9412 7.23026 17.086 7.45786 17.1831C7.68547 17.2802 7.93126 17.3273 8.17864 17.3214C8.42749 17.3277 8.67477 17.2801 8.90352 17.1819C9.13226 17.0837 9.33706 16.9371 9.50387 16.7524C9.8771 16.3011 10.0639 15.7243 10.0261 15.14C10.036 14.7443 9.96097 14.3511 9.80615 13.9869C9.6697 13.6728 9.44234 13.4067 9.15334 13.223C8.86453 13.0415 8.52944 12.9473 8.18838 12.9518C7.9467 12.9481 7.70668 12.9923 7.48219 13.0819C7.2577 13.1716 7.05319 13.3047 6.88046 13.4738C6.6761 13.7124 6.52203 13.9897 6.4275 14.2893C6.33297 14.5888 6.29993 14.9043 6.33036 15.217V15.2178ZM11.9377 17.8405V12.4315H12.6533V17.2016H15.3168V17.8401L11.9377 17.8405ZM16.4637 17.8405V12.4315H20.3747V13.0699H17.1793V14.7269H20.1715V15.3616H17.1793V17.2022H20.5002V17.8407L16.4637 17.8405ZM23.1448 17.8405V13.0699H21.362V12.4315H25.6492V13.0699H23.8599V17.8401L23.1448 17.8405ZM26.3092 15.2065C26.2644 14.4356 26.5247 13.6781 27.0339 13.0976C27.2736 12.8459 27.5639 12.6478 27.8857 12.5165C28.2076 12.3852 28.5536 12.3236 28.901 12.3359C29.3753 12.3294 29.8424 12.4533 30.2512 12.6941C30.6486 12.9289 30.9675 13.2762 31.1677 13.6922C31.3837 14.1451 31.4916 14.642 31.4828 15.1437C31.4917 15.6539 31.3779 16.1586 31.1512 16.6157C30.9448 17.0323 30.6154 17.3755 30.2074 17.5987C29.8054 17.8203 29.3532 17.9353 28.8941 17.9326C28.4134 17.9405 27.9402 17.8127 27.5288 17.5639C27.1339 17.3237 26.8177 16.9734 26.619 16.556C26.4138 16.1358 26.3078 15.6741 26.3092 15.2065V15.2065ZM27.0474 15.2178C27.0167 15.7806 27.2064 16.3332 27.5763 16.7585C27.7432 16.9412 27.9473 17.086 28.1749 17.1831C28.4025 17.2802 28.6483 17.3273 28.8957 17.3214C29.1453 17.3284 29.3934 17.2813 29.623 17.1832C29.8526 17.0851 30.0582 16.9383 30.2256 16.7531C30.5988 16.3018 30.7855 15.7251 30.7476 15.1407C30.7554 14.7445 30.6781 14.3513 30.5209 13.9876C30.3844 13.6735 30.1571 13.4075 29.8681 13.2237C29.5795 13.0424 29.2446 12.9482 28.9038 12.9525C28.662 12.9488 28.422 12.9931 28.1975 13.0827C27.973 13.1723 27.7685 13.3055 27.5957 13.4746C27.3918 13.7131 27.2381 13.9904 27.1439 14.2898C27.0497 14.5892 27.0169 14.9045 27.0474 15.2168V15.2178Z" fill="var(--fill-0, white)"/>
</g>
<defs>
<clipPath id="clip0_0_182">
<rect width="31.4834" height="17.9322" fill="white"/>
</clipPath>
</defs>
</svg>
