<svg preserveAspectRatio="none" width="100%" height="100%" overflow="visible" style="display: block;" viewBox="0 0 10.5955 10.9689" fill="none" xmlns="http://www.w3.org/2000/svg">
<g id="G">
<path id="Blue" d="M10.5955 5.60647C10.5955 5.23324 10.5655 4.86 10.5054 4.49438H5.40754V6.60431H8.32812C8.208 7.28222 7.81758 7.89159 7.24698 8.27244V9.64351H8.98882C10.0099 8.69138 10.5955 7.28222 10.5955 5.60647Z" fill="var(--fill-0, white)"/>
<path id="Green" d="M5.40778 10.9689C6.86431 10.9689 8.09561 10.4814 8.98905 9.64351L7.24722 8.27244C6.7592 8.60759 6.13605 8.79802 5.40778 8.79802C3.99629 8.79802 2.80253 7.83065 2.37458 6.53576H0.58019V7.95253C1.49616 9.80347 3.36563 10.9689 5.40778 10.9689Z" fill="var(--fill-0, white)"/>
<path id="Yellow" d="M2.37477 6.53577C2.1495 5.85786 2.1495 5.119 2.37477 4.43347V3.02431H0.580096C-0.193342 4.57057 -0.193342 6.39867 0.580096 7.94493L2.37477 6.53577Z" fill="var(--fill-0, white)"/>
<path id="Red" d="M5.40778 2.17119C6.18109 2.15596 6.92438 2.45302 7.47996 2.99383L9.02659 1.42472C8.04305 0.495441 6.75169 -0.0149013 5.40778 0.000332793C3.36563 0.000332793 1.49616 1.17336 0.58019 3.0243L2.37458 4.44107C2.80253 3.13856 3.99629 2.17119 5.40778 2.17119Z" fill="var(--fill-0, white)"/>
</g>
</svg>
