<svg preserveAspectRatio="none" width="100%" height="100%" overflow="visible" style="display: block;" viewBox="0 0 18.4619 12.4234" fill="none" xmlns="http://www.w3.org/2000/svg">
<g id="Pay">
<path id="Union" d="M15.2559 7.70856H15.2783L17.1484 3.01618H18.4619L14.4229 12.4234H13.1768L14.6777 9.13337L12.0273 3.01618H13.3418L15.2559 7.70856ZM8.93457 2.80329C9.82795 2.80331 10.5337 3.04707 11.0518 3.52692C11.5698 4.0068 11.8252 4.67753 11.8252 5.52302V9.55231H10.6689V8.64606H10.6162C10.1132 9.39232 9.45239 9.76519 8.61914 9.7652C7.91344 9.7652 7.31283 9.55206 6.83984 9.12556C6.37436 8.72947 6.11194 8.14292 6.12695 7.52595C6.12695 6.84803 6.38174 6.31441 6.88477 5.91071C7.38775 5.50712 8.06357 5.30917 8.9043 5.30915C9.62506 5.30915 10.2113 5.44665 10.6768 5.70563V5.42341C10.6767 5.00456 10.4959 4.60871 10.1807 4.33454C9.85782 4.04509 9.44455 3.88532 9.0166 3.88532C8.34109 3.88544 7.8083 4.17471 7.41797 4.75348L6.35156 4.07575C6.92216 3.23026 7.78586 2.80329 8.93457 2.80329ZM3.20605 0.000555223C3.97931 -0.0146322 4.73028 0.282246 5.27832 0.830633C6.37424 1.86652 6.44146 3.6104 5.41309 4.73005L5.27832 4.86774C4.71527 5.40851 4.02434 5.68216 3.20605 5.6822H1.20898V9.55231H0V0.000555223H3.20605ZM9.09277 6.29938C8.60473 6.29938 8.19171 6.4217 7.86133 6.65778C7.53854 6.89383 7.37316 7.19057 7.37305 7.54841C7.37305 7.86813 7.52297 8.16538 7.77051 8.34821C8.04084 8.56149 8.37205 8.67614 8.70996 8.66852C9.22034 8.66842 9.70803 8.46264 10.0684 8.09723C10.4663 7.71638 10.6699 7.26656 10.6699 6.7486C10.2945 6.44396 9.76848 6.29181 9.09277 6.29938ZM1.20898 4.50934H3.23633C3.68687 4.52458 4.12279 4.34176 4.43066 4.01423C5.06116 3.35152 5.04578 2.28483 4.39258 1.64509C4.08474 1.34061 3.6717 1.17341 3.23633 1.17341H1.20898V4.50934Z" fill="var(--fill-0, white)"/>
</g>
</svg>
