<svg preserveAspectRatio="none" width="100%" height="100%" overflow="visible" style="display: block;" viewBox="0 0 67.922 18.8419" fill="none" xmlns="http://www.w3.org/2000/svg">
<g id="Frame 5">
<g id="trof&#195;&#169;u">
<path id="Vector" fill-rule="evenodd" clip-rule="evenodd" d="M3.96453 8.1986C2.86394 8.04758 1.85722 7.52246 1.12902 6.71954C0.400827 5.91663 -2.12864e-05 4.88975 8.47806e-10 3.82727L8.47807e-10 3.23846C8.47807e-10 2.10088 0.966176 1.17762 2.15664 1.17762H3.82773C4.10871 0.488713 4.8087 0 5.62945 0H14.0884C14.4779 0.000207172 14.8582 0.112722 15.1797 0.322829C15.5011 0.532937 15.7487 0.830855 15.8901 1.17762H17.5612C18.7517 1.17762 19.7179 2.10088 19.7179 3.23846V3.82727C19.7179 4.88975 19.317 5.91663 18.5889 6.71954C17.8607 7.52246 16.8539 8.04758 15.7534 8.1986C15.4932 9.00877 15.0535 9.75593 14.4643 10.3893C13.875 11.0227 13.15 11.5274 12.3385 11.8692L12.5159 13.5721C12.5221 13.631 12.5529 13.7134 12.6564 13.8123C12.7624 13.9148 12.9238 14.0125 13.1161 14.0796C13.4648 14.2009 13.8777 14.4023 14.2129 14.7485C14.5641 15.1136 14.7884 15.5999 14.7884 16.1923V17.0755H16.3289C16.574 17.0755 16.8091 17.1686 16.9824 17.3342C17.1558 17.4998 17.2531 17.7245 17.2531 17.9587C17.2531 18.193 17.1558 18.4176 16.9824 18.5832C16.8091 18.7489 16.574 18.8419 16.3289 18.8419H3.38901C3.14388 18.8419 2.90878 18.7489 2.73545 18.5832C2.56211 18.4176 2.46473 18.193 2.46473 17.9587C2.46473 17.7245 2.56211 17.4998 2.73545 17.3342C2.90878 17.1686 3.14388 17.0755 3.38901 17.0755H4.92947V16.1923C4.92947 15.5999 5.15376 15.1136 5.50622 14.7485C5.83896 14.4023 6.25303 14.2009 6.60179 14.0796C6.77325 14.0229 6.92999 13.9318 7.06146 13.8123C7.16498 13.7122 7.19579 13.6321 7.20195 13.5721L7.37942 11.8692C6.56812 11.5273 5.84334 11.0225 5.25432 10.3891C4.66529 9.75575 4.22582 9.00866 3.96576 8.1986H3.96453ZM3.6971 2.94405H2.15664C2.07493 2.94405 1.99657 2.97507 1.93879 3.03028C1.88101 3.08549 1.84855 3.16038 1.84855 3.23846V3.82727C1.84855 4.98134 2.62001 5.96229 3.6971 6.32618V2.94405ZM9.18976 12.3297L9.04188 13.7475C8.92727 14.8368 7.98451 15.4786 7.234 15.7389C7.09572 15.7799 6.96921 15.8508 6.86429 15.9462C6.81869 15.9933 6.77802 16.0557 6.77802 16.1935V17.0767H12.9399V16.1935C12.9399 16.0557 12.8992 15.9933 12.8536 15.9462C12.7487 15.8508 12.6222 15.7799 12.4839 15.7389C11.7334 15.4786 10.7906 14.8368 10.6772 13.7487L10.5293 12.3309C10.0841 12.3769 9.63499 12.3769 9.18976 12.3309V12.3297ZM16.0208 6.32736V2.94405H17.5612C17.6429 2.94405 17.7213 2.97507 17.7791 3.03028C17.8369 3.08549 17.8693 3.16038 17.8693 3.23846V3.82727C17.8695 4.37534 17.6918 4.90997 17.3607 5.35752C17.0297 5.80506 16.5615 6.14349 16.0208 6.32618V6.32736ZM5.54565 1.84651C5.54565 1.80294 5.58262 1.76643 5.62945 1.76643H14.0884C14.134 1.76643 14.1722 1.80176 14.1722 1.84651V6.47691C14.1722 7.57005 13.7178 8.61841 12.9089 9.39138C12.1 10.1643 11.0029 10.5986 9.85894 10.5986C8.71498 10.5986 7.61788 10.1643 6.80899 9.39138C6.00009 8.61841 5.54565 7.57005 5.54565 6.47691V1.84651V1.84651Z" fill="var(--fill-0, white)"/>
<path id="Star 1" d="M9.85896 2.82622L10.523 4.77914H12.6719L10.9334 5.98611L11.5974 7.93903L9.85896 6.73206L8.12048 7.93903L8.78452 5.98611L7.04604 4.77914H9.19492L9.85896 2.82622Z" fill="var(--fill-0, white)"/>
</g>
<g id="Satisfa&#195;&#167;&#195;&#163;o Garantida">
<path d="M29.5378 9.11631C31.0343 9.11631 31.7435 8.36809 31.7435 7.49518C31.7435 5.49215 28.509 6.24815 28.509 5.08686C28.509 4.67379 28.852 4.34645 29.6937 4.34645C30.1691 4.34645 30.7069 4.48674 31.1979 4.77511L31.5175 3.98793C31.0421 3.67617 30.3562 3.50471 29.7015 3.50471C28.2051 3.50471 27.5036 4.25292 27.5036 5.13363C27.5036 7.16004 30.7459 6.38844 30.7459 7.56532C30.7459 7.9706 30.3874 8.27457 29.5378 8.27457C28.8676 8.27457 28.1739 8.02516 27.7374 7.67444L27.3867 8.46162C27.8388 8.85131 28.6883 9.11631 29.5378 9.11631Z" fill="var(--fill-0, white)"/>
<path d="M34.2446 4.82967C33.5743 4.82967 32.9274 5.00113 32.4832 5.34406L32.8651 6.05331C33.1768 5.79611 33.6601 5.64023 34.1277 5.64023C34.8214 5.64023 35.1643 5.97537 35.1643 6.54432V6.60667H34.0887C32.8261 6.60667 32.3585 7.15225 32.3585 7.8459C32.3585 8.57073 32.9586 9.09292 33.9095 9.09292C34.533 9.09292 34.985 8.89028 35.2188 8.53176V9.03837H36.1385V6.59888C36.1385 5.39862 35.4449 4.82967 34.2446 4.82967ZM34.1121 8.38368C33.6133 8.38368 33.3171 8.15766 33.3171 7.80693C33.3171 7.50297 33.4964 7.25357 34.1589 7.25357H35.1643V7.73679C35.0006 8.16545 34.5875 8.38368 34.1121 8.38368Z" fill="var(--fill-0, white)"/>
<path d="M39.6179 8.11869C39.4698 8.2356 39.275 8.29015 39.0723 8.29015C38.6982 8.29015 38.4956 8.07192 38.4956 7.66664V5.68699H39.6101V4.90761H38.4956V3.95675H37.5213V4.90761H36.8355V5.68699H37.5213V7.69002C37.5213 8.6097 38.0435 9.09292 38.9554 9.09292C39.3061 9.09292 39.6569 8.9994 39.8907 8.81234L39.6179 8.11869Z" fill="var(--fill-0, white)"/>
<path d="M41.1831 4.19057C41.5494 4.19057 41.8066 3.92558 41.8066 3.58264C41.8066 3.26309 41.5416 3.02148 41.1831 3.02148C40.8246 3.02148 40.5596 3.27868 40.5596 3.60603C40.5596 3.93337 40.8246 4.19057 41.1831 4.19057ZM40.6921 9.03837H41.6663V4.87643H40.6921V9.03837Z" fill="var(--fill-0, white)"/>
<path d="M44.231 9.09292C45.4001 9.09292 46.1171 8.58632 46.1171 7.80693C46.1171 6.17801 43.5452 6.92622 43.5452 6.08448C43.5452 5.8117 43.8257 5.61685 44.4181 5.61685C44.8156 5.61685 45.213 5.69479 45.6105 5.9286L45.9846 5.18819C45.6105 4.96216 44.9792 4.82967 44.4259 4.82967C43.3035 4.82967 42.5943 5.34406 42.5943 6.13125C42.5943 7.79134 45.1663 7.04313 45.1663 7.83811C45.1663 8.12648 44.9091 8.29795 44.2934 8.29795C43.7712 8.29795 43.21 8.12648 42.8437 7.88487L42.4696 8.62529C42.8437 8.89028 43.5374 9.09292 44.231 9.09292Z" fill="var(--fill-0, white)"/>
<path d="M48.6474 3.98793C48.8501 3.98793 49.0371 4.05807 49.1852 4.15939L49.458 3.42677C49.2398 3.27089 48.9124 3.20074 48.5773 3.20074C47.6108 3.20074 47.0886 3.7697 47.0886 4.64261V4.90761H46.4028V5.68699H47.0886V9.03837H48.0629V5.68699H49.1774V4.90761H48.0317V4.6582C48.0317 4.21395 48.2421 3.98793 48.6474 3.98793Z" fill="var(--fill-0, white)"/>
<path d="M51.347 4.82967C50.6767 4.82967 50.0299 5.00113 49.5856 5.34406L49.9675 6.05331C50.2793 5.79611 50.7625 5.64023 51.2301 5.64023C51.9238 5.64023 52.2667 5.97537 52.2667 6.54432V6.60667H51.1911C49.9285 6.60667 49.4609 7.15225 49.4609 7.8459C49.4609 8.57073 50.061 9.09292 51.0119 9.09292C51.6354 9.09292 52.0874 8.89028 52.3213 8.53176V9.03837H53.2409V6.59888C53.2409 5.39862 52.5473 4.82967 51.347 4.82967ZM51.2145 8.38368C50.7157 8.38368 50.4196 8.15766 50.4196 7.80693C50.4196 7.50297 50.5988 7.25357 51.2613 7.25357H52.2667V7.73679C52.103 8.16545 51.69 8.38368 51.2145 8.38368Z" fill="var(--fill-0, white)"/>
<path d="M56.431 8.25898C55.714 8.25898 55.1684 7.76796 55.1684 6.9574C55.1684 6.15463 55.714 5.65582 56.431 5.65582C56.8441 5.65582 57.2182 5.83508 57.4676 6.23257L58.2158 5.79611C57.8963 5.1648 57.2494 4.82967 56.4388 4.82967C55.1216 4.82967 54.1864 5.71038 54.1864 6.9574C54.1864 8.05634 54.9112 8.8747 55.979 9.05395L55.7841 9.77879H56.0257C56.3219 9.77879 56.4388 9.8879 56.4388 10.036C56.4388 10.2075 56.3141 10.3166 56.0257 10.3166C55.8309 10.3166 55.6594 10.2776 55.4957 10.1919L55.3165 10.6517C55.5113 10.7608 55.7529 10.8154 56.0335 10.8154C56.6726 10.8154 57.0935 10.527 57.0935 10.075C57.0935 9.73982 56.8753 9.47482 56.4154 9.42027L56.5012 9.09292C57.2806 9.07734 57.9041 8.72661 58.2158 8.11869L57.4676 7.68223C57.2182 8.07972 56.8441 8.25898 56.431 8.25898Z" fill="var(--fill-0, white)"/>
<path d="M60.2349 3.79308C60.5154 3.79308 60.7804 4.30748 61.2948 4.30748C61.7936 4.30748 62.121 3.8944 62.1366 3.28648H61.6144C61.5988 3.56706 61.4507 3.73073 61.2325 3.73073C60.9519 3.73073 60.6869 3.21633 60.1725 3.21633C59.6737 3.21633 59.3464 3.62161 59.3308 4.26071H59.853C59.8685 3.96454 60.0166 3.79308 60.2349 3.79308ZM60.6479 4.82967C59.9777 4.82967 59.3308 5.00113 58.8865 5.34406L59.2684 6.05331C59.5802 5.79611 60.0634 5.64023 60.531 5.64023C61.2247 5.64023 61.5676 5.97537 61.5676 6.54432V6.60667H60.4921C59.2294 6.60667 58.7618 7.15225 58.7618 7.8459C58.7618 8.57073 59.3619 9.09292 60.3128 9.09292C60.9363 9.09292 61.3884 8.89028 61.6222 8.53176V9.03837H62.5419V6.59888C62.5419 5.39862 61.8482 4.82967 60.6479 4.82967ZM60.5154 8.38368C60.0166 8.38368 59.7205 8.15766 59.7205 7.80693C59.7205 7.50297 59.8997 7.25357 60.5622 7.25357H61.5676V7.73679C61.4039 8.16545 60.9909 8.38368 60.5154 8.38368Z" fill="var(--fill-0, white)"/>
<path d="M65.7008 9.09292C66.9945 9.09292 67.922 8.20442 67.922 6.9574C67.922 5.71038 66.9945 4.82967 65.7008 4.82967C64.4226 4.82967 63.4873 5.71038 63.4873 6.9574C63.4873 8.20442 64.4226 9.09292 65.7008 9.09292ZM65.7008 8.25898C64.9993 8.25898 64.4693 7.75237 64.4693 6.9574C64.4693 6.16242 64.9993 5.65582 65.7008 5.65582C66.41 5.65582 66.94 6.16242 66.94 6.9574C66.94 7.75237 66.41 8.25898 65.7008 8.25898Z" fill="var(--fill-0, white)"/>
<path d="M31.572 15.3414C31.2213 15.5441 30.8394 15.622 30.4497 15.622C29.2962 15.622 28.4779 14.8114 28.4779 13.7047C28.4779 12.5746 29.2962 11.7874 30.4575 11.7874C31.0421 11.7874 31.5331 11.9823 31.9617 12.4109L32.6008 11.7874C32.0864 11.2029 31.3226 10.8989 30.4107 10.8989C28.7039 10.8989 27.4569 12.0758 27.4569 13.7047C27.4569 15.3336 28.7039 16.5105 30.3952 16.5105C31.1668 16.5105 31.9617 16.2767 32.5307 15.8169V13.6424H31.572V15.3414Z" fill="var(--fill-0, white)"/>
<path d="M35.3635 12.2239C34.6932 12.2239 34.0463 12.3953 33.602 12.7383L33.9839 13.4475C34.2957 13.1903 34.7789 13.0344 35.2466 13.0344C35.9402 13.0344 36.2831 13.3696 36.2831 13.9385V14.0009H35.2076C33.945 14.0009 33.4773 14.5464 33.4773 15.2401C33.4773 15.9649 34.0775 16.4871 35.0283 16.4871C35.6518 16.4871 36.1039 16.2845 36.3377 15.926V16.4326H37.2574V13.9931C37.2574 12.7928 36.5637 12.2239 35.3635 12.2239ZM35.231 15.7779C34.7322 15.7779 34.436 15.5519 34.436 15.2011C34.436 14.8972 34.6152 14.6478 35.2777 14.6478H36.2831V15.131C36.1195 15.5597 35.7064 15.7779 35.231 15.7779Z" fill="var(--fill-0, white)"/>
<path d="M39.4352 12.8786V12.2706H38.5077V16.4326H39.4819V14.414C39.4819 13.5644 39.9496 13.128 40.69 13.128C40.7601 13.128 40.8303 13.1358 40.916 13.1513V12.2239C40.2223 12.2239 39.7157 12.4421 39.4352 12.8786Z" fill="var(--fill-0, white)"/>
<path d="M43.3096 12.2239C42.6393 12.2239 41.9924 12.3953 41.5482 12.7383L41.9301 13.4475C42.2418 13.1903 42.725 13.0344 43.1927 13.0344C43.8863 13.0344 44.2293 13.3696 44.2293 13.9385V14.0009H43.1537C41.8911 14.0009 41.4235 14.5464 41.4235 15.2401C41.4235 15.9649 42.0236 16.4871 42.9744 16.4871C43.5979 16.4871 44.05 16.2845 44.2838 15.926V16.4326H45.2035V13.9931C45.2035 12.7928 44.5098 12.2239 43.3096 12.2239ZM43.1771 15.7779C42.6783 15.7779 42.3821 15.5519 42.3821 15.2011C42.3821 14.8972 42.5614 14.6478 43.2238 14.6478H44.2293V15.131C44.0656 15.5597 43.6525 15.7779 43.1771 15.7779Z" fill="var(--fill-0, white)"/>
<path d="M48.8153 12.2239C48.2074 12.2239 47.7008 12.4265 47.3813 12.8084V12.2706H46.4538V16.4326H47.428V14.3282C47.428 13.4943 47.8957 13.0734 48.5893 13.0734C49.2128 13.0734 49.5791 13.4319 49.5791 14.1723V16.4326H50.5534V14.0476C50.5534 12.7928 49.813 12.2239 48.8153 12.2239Z" fill="var(--fill-0, white)"/>
<path d="M54.0183 15.5129C53.8702 15.6298 53.6754 15.6844 53.4727 15.6844C53.0986 15.6844 52.896 15.4661 52.896 15.0608V13.0812H54.0105V12.3018H52.896V11.351H51.9218V12.3018H51.2359V13.0812H51.9218V15.0842C51.9218 16.0039 52.444 16.4871 53.3558 16.4871C53.7066 16.4871 54.0573 16.3936 54.2911 16.2065L54.0183 15.5129Z" fill="var(--fill-0, white)"/>
<path d="M55.5836 11.5848C55.9499 11.5848 56.2071 11.3198 56.2071 10.9768C56.2071 10.6573 55.9421 10.4157 55.5836 10.4157C55.225 10.4157 54.96 10.6729 54.96 11.0002C54.96 11.3276 55.225 11.5848 55.5836 11.5848ZM55.0925 16.4326H56.0668V12.2706H55.0925V16.4326Z" fill="var(--fill-0, white)"/>
<path d="M60.4474 10.6495V12.785C60.1201 12.4031 59.6447 12.2239 59.1069 12.2239C57.8988 12.2239 57.0025 13.0578 57.0025 14.3516C57.0025 15.6454 57.8988 16.4871 59.1069 16.4871C59.6758 16.4871 60.1591 16.2923 60.4864 15.8948V16.4326H61.4217V10.6495H60.4474ZM59.2238 15.6532C58.5223 15.6532 57.9846 15.1466 57.9846 14.3516C57.9846 13.5566 58.5223 13.05 59.2238 13.05C59.9252 13.05 60.463 13.5566 60.463 14.3516C60.463 15.1466 59.9252 15.6532 59.2238 15.6532Z" fill="var(--fill-0, white)"/>
<path d="M64.2861 12.2239C63.6158 12.2239 62.9689 12.3953 62.5247 12.7383L62.9066 13.4475C63.2183 13.1903 63.7016 13.0344 64.1692 13.0344C64.8628 13.0344 65.2058 13.3696 65.2058 13.9385V14.0009H64.1302C62.8676 14.0009 62.4 14.5464 62.4 15.2401C62.4 15.9649 63.0001 16.4871 63.951 16.4871C64.5745 16.4871 65.0265 16.2845 65.2603 15.926V16.4326H66.18V13.9931C66.18 12.7928 65.4864 12.2239 64.2861 12.2239ZM64.1536 15.7779C63.6548 15.7779 63.3586 15.5519 63.3586 15.2011C63.3586 14.8972 63.5379 14.6478 64.2004 14.6478H65.2058V15.131C65.0421 15.5597 64.629 15.7779 64.1536 15.7779Z" fill="var(--fill-0, white)"/>
</g>
</g>
</svg>
