<svg preserveAspectRatio="none" width="100%" height="100%" overflow="visible" style="display: block;" viewBox="0 0 31.3814 10.0153" fill="none" xmlns="http://www.w3.org/2000/svg">
<path id="visa-logo" fill-rule="evenodd" clip-rule="evenodd" d="M7.84568 9.93733H5.12982L3.09325 2.16772C2.99659 1.81031 2.79134 1.49435 2.48943 1.34543C1.73598 0.971195 0.905729 0.673359 0 0.523147V0.224017H4.37504C4.97886 0.224017 5.43173 0.673359 5.5072 1.19522L6.56389 6.7997L9.27843 0.224017H11.9188L7.84568 9.93733ZM13.4284 9.93733H10.8635L12.9755 0.224017H15.5404L13.4284 9.93733ZM18.8588 2.9149C18.9342 2.39175 19.3871 2.09262 19.9154 2.09262C20.7457 2.01751 21.6501 2.16772 22.4049 2.54066L22.8577 0.449343C22.103 0.150213 21.2727 0 20.5193 0C18.0298 0 16.2184 1.34544 16.2184 3.21274C16.2184 4.63328 17.5015 5.37916 18.4072 5.82851C19.3871 6.27655 19.7645 6.57568 19.689 7.02373C19.689 7.6958 18.9342 7.99493 18.1808 7.99493C17.2751 7.99493 16.3693 7.77091 15.5404 7.39667L15.0875 9.48929C15.9933 9.86223 16.9732 10.0124 17.8789 10.0124C20.6702 10.0863 22.4049 8.74211 22.4049 6.7246C22.4049 4.18394 18.8588 4.03502 18.8588 2.9149V2.9149ZM31.3814 9.93733L29.3448 0.224017H27.1573C26.7044 0.224017 26.2516 0.523147 26.1006 0.971195L22.3294 9.93733H24.9698L25.4968 8.51808H28.741L29.0429 9.93733H31.3814ZM27.5347 2.8398L28.2881 6.50058H26.1761L27.5347 2.8398Z" fill="var(--fill-0, white)"/>
</svg>
