<svg preserveAspectRatio="none" width="100%" height="100%" overflow="visible" style="display: block;" viewBox="0 0 68.525 18.8419" fill="none" xmlns="http://www.w3.org/2000/svg">
<g id="Frame 6">
<g id="Lock">
<path id="Vector" d="M6.91137 10.8563C6.57585 10.8587 6.25084 10.9684 5.98818 11.1679C5.72552 11.3675 5.54033 11.6453 5.46216 11.9571C5.384 12.2689 5.41734 12.5967 5.55689 12.8883C5.69643 13.1799 5.93413 13.4184 6.23209 13.5659V15.269H7.47848V13.6194C7.80025 13.4934 8.0663 13.2646 8.23121 12.9721C8.39613 12.6795 8.44969 12.3413 8.38277 12.0153C8.31584 11.6892 8.13257 11.3954 7.86424 11.184C7.5959 10.9726 7.25912 10.8568 6.91137 10.8563V10.8563Z" fill="var(--fill-0, white)"/>
<path id="Vector_2" d="M11.8407 7.52725V4.97846C11.8675 3.68733 11.3579 2.43864 10.4236 1.50562C9.48923 0.572604 8.20616 0.0312439 6.85514 0C5.50411 0.0312439 4.22105 0.572604 3.2867 1.50562C2.35236 2.43864 1.84282 3.68733 1.86958 4.97846V7.52725H0V17.6509C0 17.9668 0.131316 18.2697 0.365059 18.4931C0.598802 18.7165 0.915826 18.8419 1.24639 18.8419H12.4639C12.7945 18.8419 13.1115 18.7165 13.3452 18.4931C13.579 18.2697 13.7103 17.9668 13.7103 17.6509V7.52725H11.8407ZM3.11597 4.97846C3.0891 4.00316 3.4673 3.05734 4.16793 2.34766C4.86856 1.63799 5.83466 1.22215 6.85514 1.19102C7.87562 1.22215 8.84172 1.63799 9.54235 2.34766C10.243 3.05734 10.6212 4.00316 10.5943 4.97846V7.52725H3.11597V4.97846ZM1.24639 17.6509V8.71827H12.4639V17.6509H1.24639Z" fill="var(--fill-0, white)"/>
</g>
<g id="Privacidade Protegida">
<path d="M24.5181 2.49335H22.2734V7.94907H23.2866V6.3747H24.5181C25.9521 6.3747 26.8406 5.63428 26.8406 4.43403C26.8406 3.22597 25.9521 2.49335 24.5181 2.49335ZM24.4713 5.51738H23.2866V3.35067H24.4713C25.3598 3.35067 25.8196 3.74816 25.8196 4.43403C25.8196 5.11989 25.3598 5.51738 24.4713 5.51738Z" fill="var(--fill-0, white)"/>
<path d="M28.6483 4.39506V3.78713H27.7209V7.94907H28.6951V5.93045C28.6951 5.08092 29.1627 4.64446 29.9031 4.64446C29.9733 4.64446 30.0434 4.65225 30.1292 4.66784V3.74037C29.4355 3.74037 28.9289 3.9586 28.6483 4.39506Z" fill="var(--fill-0, white)"/>
<path d="M31.4466 3.10127C31.813 3.10127 32.0702 2.83628 32.0702 2.49335C32.0702 2.1738 31.8052 1.93219 31.4466 1.93219C31.0881 1.93219 30.8231 2.18939 30.8231 2.51673C30.8231 2.84407 31.0881 3.10127 31.4466 3.10127ZM30.9556 7.94907H31.9299V3.78713H30.9556V7.94907Z" fill="var(--fill-0, white)"/>
<path d="M36.1702 3.78713L34.8375 6.87351L33.5437 3.78713H32.5305L34.3153 7.94907H35.3207L37.1055 3.78713H36.1702Z" fill="var(--fill-0, white)"/>
<path d="M39.175 3.74037C38.5047 3.74037 37.8578 3.91184 37.4135 4.25477L37.7954 4.96401C38.1072 4.70681 38.5904 4.55093 39.058 4.55093C39.7517 4.55093 40.0946 4.88607 40.0946 5.45503V5.51738H39.0191C37.7565 5.51738 37.2888 6.06295 37.2888 6.7566C37.2888 7.48144 37.889 8.00363 38.8398 8.00363C39.4633 8.00363 39.9154 7.80099 40.1492 7.44247V7.94907H41.0689V5.50958C41.0689 4.30932 40.3752 3.74037 39.175 3.74037ZM39.0425 7.29438C38.5436 7.29438 38.2475 7.06836 38.2475 6.71764C38.2475 6.41367 38.4267 6.16427 39.0892 6.16427H40.0946V6.64749C39.931 7.07615 39.5179 7.29438 39.0425 7.29438Z" fill="var(--fill-0, white)"/>
<path d="M44.2667 8.00363C45.0773 8.00363 45.7242 7.6529 46.0437 7.02939L45.2955 6.59293C45.0461 6.99042 44.672 7.16968 44.2589 7.16968C43.5419 7.16968 42.9963 6.67867 42.9963 5.8681C42.9963 5.06533 43.5419 4.56652 44.2589 4.56652C44.672 4.56652 45.0461 4.74578 45.2955 5.14327L46.0437 4.70681C45.7242 4.07551 45.0773 3.74037 44.2667 3.74037C42.9496 3.74037 42.0143 4.62108 42.0143 5.8681C42.0143 7.11512 42.9496 8.00363 44.2667 8.00363Z" fill="var(--fill-0, white)"/>
<path d="M47.3769 3.10127C47.7432 3.10127 48.0004 2.83628 48.0004 2.49335C48.0004 2.1738 47.7354 1.93219 47.3769 1.93219C47.0184 1.93219 46.7534 2.18939 46.7534 2.51673C46.7534 2.84407 47.0184 3.10127 47.3769 3.10127ZM46.8859 7.94907H47.8601V3.78713H46.8859V7.94907Z" fill="var(--fill-0, white)"/>
<path d="M52.2408 2.166V4.30153C51.9135 3.91963 51.438 3.74037 50.9003 3.74037C49.6922 3.74037 48.7959 4.57432 48.7959 5.8681C48.7959 7.16189 49.6922 8.00363 50.9003 8.00363C51.4692 8.00363 51.9524 7.80878 52.2798 7.41129V7.94907H53.215V2.166H52.2408ZM51.0172 7.16968C50.3157 7.16968 49.7779 6.66308 49.7779 5.8681C49.7779 5.07312 50.3157 4.56652 51.0172 4.56652C51.7186 4.56652 52.2564 5.07312 52.2564 5.8681C52.2564 6.66308 51.7186 7.16968 51.0172 7.16968Z" fill="var(--fill-0, white)"/>
<path d="M56.0795 3.74037C55.4092 3.74037 54.7623 3.91184 54.3181 4.25477L54.7 4.96401C55.0117 4.70681 55.4949 4.55093 55.9626 4.55093C56.6562 4.55093 56.9992 4.88607 56.9992 5.45503V5.51738H55.9236C54.661 5.51738 54.1934 6.06295 54.1934 6.7566C54.1934 7.48144 54.7935 8.00363 55.7443 8.00363C56.3678 8.00363 56.8199 7.80099 57.0537 7.44247V7.94907H57.9734V5.50958C57.9734 4.30932 57.2797 3.74037 56.0795 3.74037ZM55.947 7.29438C55.4482 7.29438 55.152 7.06836 55.152 6.71764C55.152 6.41367 55.3313 6.16427 55.9937 6.16427H56.9992V6.64749C56.8355 7.07615 56.4224 7.29438 55.947 7.29438Z" fill="var(--fill-0, white)"/>
<path d="M62.3637 2.166V4.30153C62.0364 3.91963 61.561 3.74037 61.0232 3.74037C59.8151 3.74037 58.9188 4.57432 58.9188 5.8681C58.9188 7.16189 59.8151 8.00363 61.0232 8.00363C61.5921 8.00363 62.0754 7.80878 62.4027 7.41129V7.94907H63.338V2.166H62.3637ZM61.1401 7.16968C60.4386 7.16968 59.9009 6.66308 59.9009 5.8681C59.9009 5.07312 60.4386 4.56652 61.1401 4.56652C61.8415 4.56652 62.3793 5.07312 62.3793 5.8681C62.3793 6.66308 61.8415 7.16968 61.1401 7.16968Z" fill="var(--fill-0, white)"/>
<path d="M68.525 5.89148C68.525 4.5899 67.6365 3.74037 66.4206 3.74037C65.1814 3.74037 64.2695 4.62887 64.2695 5.8681C64.2695 7.10733 65.1736 8.00363 66.5687 8.00363C67.2858 8.00363 67.8703 7.76981 68.2444 7.32556L67.7222 6.72543C67.426 7.02939 67.0597 7.17747 66.5921 7.17747C65.8673 7.17747 65.3607 6.78778 65.2438 6.17986H68.5094C68.5172 6.08633 68.525 5.96942 68.525 5.89148ZM66.4206 4.51976C67.0597 4.51976 67.5196 4.93283 67.5975 5.53296H65.236C65.3295 4.92504 65.7893 4.51976 66.4206 4.51976Z" fill="var(--fill-0, white)"/>
<path d="M24.5181 9.88755H22.2734V15.3433H23.2866V13.7689H24.5181C25.9521 13.7689 26.8406 13.0285 26.8406 11.8282C26.8406 10.6202 25.9521 9.88755 24.5181 9.88755ZM24.4713 12.9116H23.2866V10.7449H24.4713C25.3598 10.7449 25.8196 11.1424 25.8196 11.8282C25.8196 12.5141 25.3598 12.9116 24.4713 12.9116Z" fill="var(--fill-0, white)"/>
<path d="M28.6483 11.7893V11.1813H27.7209V15.3433H28.6951V13.3247C28.6951 12.4751 29.1627 12.0387 29.9031 12.0387C29.9733 12.0387 30.0434 12.0465 30.1292 12.062V11.1346C29.4355 11.1346 28.9289 11.3528 28.6483 11.7893Z" fill="var(--fill-0, white)"/>
<path d="M32.7881 15.3978C34.0819 15.3978 35.0094 14.5093 35.0094 13.2623C35.0094 12.0153 34.0819 11.1346 32.7881 11.1346C31.5099 11.1346 30.5746 12.0153 30.5746 13.2623C30.5746 14.5093 31.5099 15.3978 32.7881 15.3978ZM32.7881 14.5639C32.0867 14.5639 31.5567 14.0573 31.5567 13.2623C31.5567 12.4673 32.0867 11.9607 32.7881 11.9607C33.4974 11.9607 34.0273 12.4673 34.0273 13.2623C34.0273 14.0573 33.4974 14.5639 32.7881 14.5639Z" fill="var(--fill-0, white)"/>
<path d="M38.17 14.4236C38.0219 14.5405 37.8271 14.5951 37.6245 14.5951C37.2504 14.5951 37.0477 14.3768 37.0477 13.9715V11.9919H38.1622V11.2125H37.0477V10.2617H36.0735V11.2125H35.3876V11.9919H36.0735V13.9949C36.0735 14.9146 36.5957 15.3978 37.5075 15.3978C37.8583 15.3978 38.209 15.3043 38.4428 15.1173L38.17 14.4236Z" fill="var(--fill-0, white)"/>
<path d="M43.0198 13.2857C43.0198 11.9841 42.1313 11.1346 40.9154 11.1346C39.6762 11.1346 38.7643 12.0231 38.7643 13.2623C38.7643 14.5015 39.6684 15.3978 41.0635 15.3978C41.7806 15.3978 42.3651 15.164 42.7392 14.7198L42.217 14.1196C41.9208 14.4236 41.5545 14.5717 41.0869 14.5717C40.3621 14.5717 39.8555 14.182 39.7386 13.5741H43.0042C43.012 13.4805 43.0198 13.3636 43.0198 13.2857ZM40.9154 11.914C41.5545 11.914 42.0144 12.327 42.0923 12.9272H39.7308C39.8243 12.3192 40.2841 11.914 40.9154 11.914Z" fill="var(--fill-0, white)"/>
<path d="M47.1589 11.1813V11.7347C46.816 11.3216 46.3016 11.1346 45.717 11.1346C44.5245 11.1346 43.6127 11.9295 43.6127 13.1376C43.6127 14.3457 44.5245 15.1562 45.717 15.1562C46.2782 15.1562 46.7692 14.977 47.1121 14.6029V14.8211C47.1121 15.6628 46.7068 16.0837 45.7872 16.0837C45.2104 16.0837 44.6181 15.8888 44.2518 15.5849L43.8153 16.3175C44.2907 16.7072 45.0623 16.9098 45.8417 16.9098C47.2992 16.9098 48.0864 16.224 48.0864 14.712V11.1813H47.1589ZM45.8651 14.3301C45.1247 14.3301 44.5947 13.8468 44.5947 13.1376C44.5947 12.4362 45.1247 11.9607 45.8651 11.9607C46.5977 11.9607 47.1277 12.4362 47.1277 13.1376C47.1277 13.8468 46.5977 14.3301 45.8651 14.3301Z" fill="var(--fill-0, white)"/>
<path d="M49.8582 10.4955C50.2245 10.4955 50.4817 10.2305 50.4817 9.88755C50.4817 9.568 50.2167 9.32639 49.8582 9.32639C49.4997 9.32639 49.2347 9.58359 49.2347 9.91093C49.2347 10.2383 49.4997 10.4955 49.8582 10.4955ZM49.3672 15.3433H50.3414V11.1813H49.3672V15.3433Z" fill="var(--fill-0, white)"/>
<path d="M54.7221 9.56021V11.6957C54.3947 11.3138 53.9193 11.1346 53.3815 11.1346C52.1735 11.1346 51.2772 11.9685 51.2772 13.2623C51.2772 14.5561 52.1735 15.3978 53.3815 15.3978C53.9505 15.3978 54.4337 15.203 54.761 14.8055V15.3433H55.6963V9.56021H54.7221ZM53.4984 14.5639C52.797 14.5639 52.2592 14.0573 52.2592 13.2623C52.2592 12.4673 52.797 11.9607 53.4984 11.9607C54.1999 11.9607 54.7376 12.4673 54.7376 13.2623C54.7376 14.0573 54.1999 14.5639 53.4984 14.5639Z" fill="var(--fill-0, white)"/>
<path d="M58.5607 11.1346C57.8905 11.1346 57.2436 11.306 56.7993 11.649L57.1812 12.3582C57.493 12.101 57.9762 11.9451 58.4438 11.9451C59.1375 11.9451 59.4804 12.2803 59.4804 12.8492V12.9116H58.4049C57.1422 12.9116 56.6746 13.4572 56.6746 14.1508C56.6746 14.8756 57.2747 15.3978 58.2256 15.3978C58.8491 15.3978 59.3012 15.1952 59.535 14.8367V15.3433H60.4547V12.9038C60.4547 11.7035 59.761 11.1346 58.5607 11.1346ZM58.4282 14.6886C57.9294 14.6886 57.6333 14.4626 57.6333 14.1118C57.6333 13.8079 57.8125 13.5585 58.475 13.5585H59.4804V14.0417C59.3167 14.4704 58.9037 14.6886 58.4282 14.6886Z" fill="var(--fill-0, white)"/>
</g>
</g>
</svg>
