<svg preserveAspectRatio="none" width="100%" height="100%" overflow="visible" style="display: block;" viewBox="0 0 26.4559 26.4559" fill="none" xmlns="http://www.w3.org/2000/svg">
<path id="Vector" d="M24.252 0.00901781C23.6675 0.00901781 23.1069 0.241215 22.6936 0.654528C22.2803 1.06784 22.0481 1.62841 22.0481 2.21292V18.9406L3.7777 0.648151C3.36269 0.233147 2.79983 -4.37277e-09 2.21292 0C1.62602 4.37278e-09 1.06315 0.233147 0.648151 0.648151C0.233147 1.06315 4.37278e-09 1.62602 0 2.21292C-4.37277e-09 2.79983 0.233147 3.36269 0.648151 3.7777L18.9406 22.0481H2.21292C1.62841 22.0481 1.06784 22.2803 0.654528 22.6936C0.241215 23.1069 0.00901781 23.6675 0.00901781 24.252C0.00901781 24.8365 0.241215 25.3971 0.654528 25.8104C1.06784 26.2237 1.62841 26.4559 2.21292 26.4559H24.252C24.54 26.4524 24.8245 26.3925 25.0895 26.2796C25.628 26.0559 26.0559 25.628 26.2796 25.0895C26.3925 24.8245 26.4524 24.54 26.4559 24.252V2.21292C26.4559 1.62841 26.2237 1.06784 25.8104 0.654528C25.3971 0.241215 24.8365 0.00901781 24.252 0.00901781Z" fill="var(--fill-0, white)"/>
</svg>
