<svg preserveAspectRatio="none" width="100%" height="100%" overflow="visible" style="display: block;" viewBox="0 0 47.0437 48.2299" fill="none" xmlns="http://www.w3.org/2000/svg">
<g id="Group 1171276363">
<circle id="Ellipse 22996" cx="23.5219" cy="22.7312" r="22.4841" fill="var(--fill-0, #060F1D)" stroke="url(#paint0_linear_0_6)" stroke-width="0.494155"/>
<g id="Ellipse 22999" filter="url(#filter0_d_0_6)">
<ellipse cx="23.5218" cy="22.2374" rx="16.8013" ry="16.3072" fill="var(--fill-0, #060F1D)"/>
<path d="M23.5223 6.42433C32.5423 6.42456 39.8289 13.5185 39.8289 22.2378C39.8287 30.9569 32.5421 38.0501 23.5223 38.0503C14.5022 38.0503 7.21491 30.9571 7.21465 22.2378C7.21465 13.5183 14.5021 6.42433 23.5223 6.42433Z" stroke="var(--stroke-0, #10B981)" stroke-width="0.98831"/>
</g>
<path id="Vector" d="M32.4166 17.6553L23.5218 13.8361L14.627 17.6553L23.5218 21.4744L32.4166 17.6553ZM23.5218 22.9992L18.4872 20.5796L14.627 22.2368L23.5218 26.0559L32.4166 22.2368L28.5564 20.5796L23.5218 22.9992ZM23.5218 27.5807L18.6714 25.0824L14.627 26.8183L23.5218 30.6375L32.4166 26.8183L28.3723 25.0824L23.5218 27.5807Z" fill="var(--fill-0, #10B981)"/>
</g>
<defs>
<filter id="filter0_d_0_6" x="0" y="2.17461" width="47.0437" height="46.0553" filterUnits="userSpaceOnUse" color-interpolation-filters="sRGB">
<feFlood flood-opacity="0" result="BackgroundImageFix"/>
<feColorMatrix in="SourceAlpha" type="matrix" values="0 0 0 0 0 0 0 0 0 0 0 0 0 0 0 0 0 0 127 0" result="hardAlpha"/>
<feOffset dy="2.96493"/>
<feGaussianBlur stdDeviation="3.36026"/>
<feComposite in2="hardAlpha" operator="out"/>
<feColorMatrix type="matrix" values="0 0 0 0 0.0474667 0 0 0 0 0.0938863 0 0 0 0 0.145192 0 0 0 1 0"/>
<feBlend mode="normal" in2="BackgroundImageFix" result="effect1_dropShadow_0_6"/>
<feBlend mode="normal" in="SourceGraphic" in2="effect1_dropShadow_0_6" result="shape"/>
</filter>
<linearGradient id="paint0_linear_0_6" x1="23.5219" y1="0" x2="23.5219" y2="45.4624" gradientUnits="userSpaceOnUse">
<stop stop-color="#4D6E91"/>
<stop offset="1" stop-color="#33455A"/>
</linearGradient>
</defs>
</svg>
